<?xml version="1.0" standalone="no"?>
<!DOCTYPE svg PUBLIC "-//W3C//DTD SVG 1.1//EN" "http://www.w3.org/Graphics/SVG/1.1/DTD/svg11.dtd" >
<svg xmlns="http://www.w3.org/2000/svg" xmlns:xlink="http://www.w3.org/1999/xlink" version="1.1">
<metadata></metadata>
<defs>
<font id="majesti_bannerbook" horiz-adv-x="1351" >
<font-face units-per-em="2048" ascent="1536" descent="-512" />
<missing-glyph horiz-adv-x="477" />
<glyph unicode="&#xfb01;" horiz-adv-x="1189" d="M35 807v20h176v134q0 181 117.5 285t298.5 104q152 0 251 -68.5t99 -157.5q0 -50 -33 -83t-82 -33q-46 0 -78 33.5t-32 80.5q0 40 21 70.5t56 42.5q-28 43 -80 72.5t-120 29.5q-115 0 -173.5 -80.5t-58.5 -209.5v-220h371l238 21v-709q0 -74 33.5 -99.5t119.5 -25.5v-14 h-493v14q86 0 119.5 25.5t33.5 99.5v541q0 70 -29 98.5t-100 28.5h-293v-666q0 -80 39.5 -103.5t132.5 -23.5v-14h-522v14q90 0 127 25t37 102v666h-176z" />
<glyph unicode="&#xfb02;" horiz-adv-x="1189" d="M35 807v20h176v142q0 180 114.5 280.5t290.5 100.5q161 0 265 -80l118 98h7v-1229q0 -74 33.5 -99.5t119.5 -25.5v-14h-493v14q86 0 119.5 25.5t33.5 99.5v875q-35 11 -56.5 40.5t-21.5 69.5q0 38 21.5 68.5t56.5 42.5q-28 43 -79 72.5t-119 29.5q-112 0 -168 -80.5 t-56 -209.5v-220h230v-20h-230v-666q0 -80 39.5 -103.5t132.5 -23.5v-14h-522v14q90 0 127 25t37 102v666h-176z" />
<glyph horiz-adv-x="0" />
<glyph horiz-adv-x="682" />
<glyph unicode=" "  horiz-adv-x="477" />
<glyph unicode="&#x09;" horiz-adv-x="477" />
<glyph unicode="&#xa0;" horiz-adv-x="477" />
<glyph unicode="!" horiz-adv-x="462" d="M111 106q0 51 35.5 85t86.5 34t85 -34t34 -85t-34 -86.5t-85 -35.5t-86.5 35.5t-35.5 86.5zM113 1153q0 62 32 99.5t86 37.5q52 0 85.5 -37.5t33.5 -99.5q0 -36 -15 -107.5t-33.5 -151.5t-37 -222t-24.5 -299h-17q-6 157 -24.5 299t-37 222t-33.5 151.5t-15 107.5z" />
<glyph unicode="&#x22;" horiz-adv-x="731" d="M92 1182q0 47 28.5 77.5t74.5 30.5q45 0 74.5 -29.5t29.5 -78.5q0 -36 -40.5 -160t-55.5 -236h-17q-15 113 -54.5 236.5t-39.5 159.5zM432 1182q0 47 29.5 77.5t75.5 30.5q44 0 73 -29.5t29 -78.5q0 -36 -39.5 -160t-54.5 -236h-17q-12 88 -36.5 171.5t-42 137.5 t-17.5 87z" />
<glyph unicode="#" horiz-adv-x="1091" d="M72 371v20h192l109 488h-205v18h209l82 369h22l-82 -369h426l82 369h23l-82 -369h172v-18h-176l-109 -488h189v-20h-195l-82 -371h-22l82 371h-426l-82 -371h-23l82 371h-186zM287 391h426l108 488h-426z" />
<glyph unicode="$" horiz-adv-x="1085" d="M80 264q0 58 36 96.5t89 38.5q54 0 90.5 -37t36.5 -90q0 -46 -30.5 -83t-74.5 -44q28 -62 103.5 -108.5t199.5 -46.5v567q-162 65 -213 92q-146 78 -184 193q-16 47 -16 104q0 154 111.5 247t301.5 97v135h21v-135q182 -1 293.5 -81t111.5 -189q0 -62 -36 -98.5 t-89 -36.5q-52 0 -89 37t-37 90q0 46 30 81.5t74 43.5q-74 139 -258 139v-518q165 -63 217 -90q171 -86 214 -215q17 -50 17 -109q0 -76 -28 -142t-82 -117t-141 -80.5t-197 -29.5v-190h-21v190q-198 4 -324 91.5t-126 197.5zM268 1034q0 -54 19.5 -96.5t59 -74t81 -52.5 t102.5 -45v510q-124 -6 -193 -74t-69 -168zM551 -10q142 7 218.5 84.5t76.5 185.5q0 58 -22.5 103.5t-68.5 80t-90 56.5t-114 49v-559z" />
<glyph unicode="%" horiz-adv-x="1437" d="M70 952q0 149 87.5 241.5t217.5 92.5q84 0 153 -40t107 -113q80 -27 158 -27q139 0 313 82q10 17 21 48.5t20.5 44.5t26.5 13q13 0 22.5 -9t9.5 -25q0 -49 -82 -80l-848 -1196l-16 10l830 1169q-149 -73 -295 -73q-83 0 -148 22q33 -74 33 -160q0 -148 -87.5 -241 t-217.5 -93t-217.5 93t-87.5 241zM217 952q0 -66 8 -121t26 -101t49.5 -71.5t74.5 -25.5t74.5 25.5t49 71.5t25.5 101t8 121q0 164 -43 246q-37 29 -63 59q-21 15 -51 15q-57 0 -93.5 -46t-50.5 -114.5t-14 -159.5zM754 313q0 148 87.5 240t217.5 92t217.5 -92t87.5 -240 t-87.5 -240.5t-217.5 -92.5t-217.5 92.5t-87.5 240.5zM901 313q0 -67 8 -122t26 -100.5t49.5 -71t74.5 -25.5q57 0 93.5 46t50.5 114t14 159t-14 159.5t-50.5 114.5t-93.5 46t-93.5 -46t-50.5 -114.5t-14 -159.5z" />
<glyph unicode="&#x26;" horiz-adv-x="1488" d="M106 305q0 55 18.5 101t47.5 79t75.5 63.5t89.5 51t103 43.5l-34 35q-158 149 -158 305q0 135 115 221t292 86q167 0 265 -74.5t98 -189.5q0 -36 -11 -67.5t-26 -55t-43.5 -46t-51.5 -36.5t-62.5 -30.5t-63 -25t-66.5 -23t-61 -21.5l436 -418q51 115 55 227 q2 81 -37 111.5t-155 30.5v14h446v-14q-66 0 -107 -10t-63.5 -35.5t-33 -52t-23.5 -76.5q-2 -11 -4 -17q-32 -125 -64 -190l156 -150q79 -76 124.5 -101.5t111.5 -25.5v-14h-363l-137 131q-159 -156 -412 -156q-200 0 -328.5 89t-128.5 241zM309 332q0 -47 8.5 -90.5 t30.5 -88t57 -77.5t92 -53.5t130 -20.5q200 0 334 141l-508 488q-144 -93 -144 -299zM436 1047q0 -136 146 -275l43 -43q105 53 164 126t59 192q0 102 -49 165.5t-148 63.5q-98 0 -156.5 -64t-58.5 -165z" />
<glyph unicode="'" horiz-adv-x="389" d="M92 1182q0 47 28.5 77.5t74.5 30.5q45 0 74.5 -29.5t29.5 -78.5q0 -36 -40.5 -160t-55.5 -236h-17q-15 113 -54.5 236.5t-39.5 159.5z" />
<glyph unicode="(" horiz-adv-x="653" d="M78 537q0 79 14 155.5t35 139.5t56.5 126.5t68 111t80.5 99.5t83 85.5t86.5 75t80 62.5t73.5 54l7 -10q-53 -39 -103.5 -92t-105.5 -135.5t-95.5 -177.5t-67 -224.5t-26.5 -269.5q0 -141 26.5 -270.5t67 -224.5t95.5 -177.5t105.5 -135t103.5 -91.5l-7 -11 q-58 41 -96.5 70t-104.5 86t-111.5 107.5t-99.5 126t-87 150.5t-55.5 171.5t-22.5 198.5z" />
<glyph unicode=")" horiz-adv-x="653" d="M-8 -362q53 39 103.5 91.5t105 135t95 177.5t67 224.5t26.5 270.5q0 140 -26.5 269.5t-67 224.5t-95 177.5t-105 135.5t-103.5 92l6 10q45 -33 73.5 -54t80 -62.5t86.5 -75t83 -85.5t80.5 -99.5t68 -111t56.5 -126.5t35 -139.5t14 -155.5q0 -102 -22.5 -198.5 t-55.5 -171.5t-87 -150.5t-99.5 -126t-111.5 -107.5t-104.5 -86t-96.5 -70z" />
<glyph unicode="*" horiz-adv-x="839" d="M119 849.5q7 27.5 35 41.5q16 10 98.5 22.5t146.5 40.5l7 -8q-44 -31 -80 -71.5t-59.5 -70.5t-39.5 -40q-26 -14 -53.5 -6.5t-44.5 35.5q-17 29 -10 56.5zM119 1071.5q-8 27.5 10 58.5q15 27 42.5 35t55.5 -6q15 -10 38.5 -40.5t60 -71t80.5 -72.5l-7 -6q-62 27 -145 39 t-100 22q-27 14 -35 41.5zM346 696q0 18 31.5 96.5t38.5 147.5h8q8 -70 39 -148.5t31 -95.5q0 -31 -20.5 -51t-53.5 -20t-53.5 20.5t-20.5 50.5zM346 1227q0 30 20.5 50.5t53.5 20.5t53.5 -20t20.5 -51q0 -18 -31 -96t-39 -148h-8q-7 69 -38.5 147.5t-31.5 96.5zM436 946 l4 8q65 -28 148 -40.5t100 -22.5q26 -14 33.5 -41t-8.5 -57q-17 -28 -46 -35.5t-53 6.5q-17 10 -40.5 40t-59 70.5t-78.5 71.5zM436 975q44 32 80 73t59 71t39 40q24 14 53 6t44 -35q18 -31 10.5 -58.5t-33.5 -41.5q-17 -10 -101 -22t-147 -39z" />
<glyph unicode="+" horiz-adv-x="1083" d="M86 492v20h444v446h21v-446h444v-20h-444v-447h-21v447h-444z" />
<glyph unicode="," horiz-adv-x="481" d="M68 -252q98 36 162.5 111.5t64.5 160.5q-28 -22 -66 -22q-47 0 -80.5 34t-33.5 81q0 48 34.5 80t88.5 32q59 0 93 -42.5t34 -110.5q0 -97 -73.5 -190t-215.5 -144z" />
<glyph unicode="-" horiz-adv-x="792" d="M127 442v68h541v-68h-541z" />
<glyph unicode="." horiz-adv-x="471" d="M115 106q0 51 35 85t86 34t85.5 -34t34.5 -85t-34.5 -86.5t-85.5 -35.5t-86 35.5t-35 86.5z" />
<glyph unicode="/" horiz-adv-x="907" d="M53 -334l785 1759l18 -8l-786 -1759z" />
<glyph unicode="0" horiz-adv-x="1204" d="M106 633q0 136 33 254.5t94 208.5t157 142t214 52q155 0 269 -90t170.5 -237t56.5 -330t-56.5 -330.5t-170.5 -237.5t-269 -90q-118 0 -214 52t-157 142t-94 209t-33 255zM319 633q0 -127 16 -238.5t49 -204t89.5 -146.5t130.5 -54q73 0 129 54t88.5 146t49 204t16.5 239 q0 100 -10 191.5t-32 174.5t-54.5 144t-80.5 97t-106 36q-74 0 -130.5 -54t-89.5 -146.5t-49 -204.5t-16 -238z" />
<glyph unicode="1" horiz-adv-x="745" d="M68 1133v12q257 15 424 123l8 -2v-1067q0 -105 43 -145t162 -40v-14h-609v14q122 0 166.5 41.5t44.5 147.5v829q0 50 -18.5 75.5t-71.5 25.5h-149z" />
<glyph unicode="2" horiz-adv-x="1101" d="M100 981q0 52 29.5 105.5t83 99.5t138.5 75t186 29q184 0 306 -89.5t122 -235.5q0 -72 -33 -132t-89 -104.5t-125.5 -83.5t-147.5 -77t-148.5 -77t-135 -93t-102.5 -115q-34 -51 -43 -115q21 67 76 104t143 37q69 0 147 -28.5t153.5 -57t138.5 -28.5q87 0 127.5 45.5 t40.5 121.5q0 31 -11 84h19q16 -86 16 -155q0 -80 -18 -145.5t-66 -112.5t-121 -47q-58 0 -109.5 29.5t-92 72t-80.5 85t-90.5 72t-106.5 29.5q-80 0 -123 -54t-43 -138q0 -41 13 -82h-21q-48 164 39 299q30 50 79.5 98t102 86.5t110 79.5t108 85t91.5 93.5t65 114.5t24 139 q0 55 -13.5 102.5t-41.5 88.5t-78.5 64.5t-118.5 23.5q-190 0 -273 -178q55 -3 89 -39.5t34 -89.5t-36 -90t-89 -37q-56 0 -90.5 42t-34.5 99z" />
<glyph unicode="3" horiz-adv-x="1120" d="M94 248q0 58 36 97.5t87 39.5q52 0 88.5 -37.5t36.5 -91.5q0 -49 -32.5 -85.5t-78.5 -41.5q27 -58 92 -98.5t169 -40.5q107 0 179.5 48.5t103 122.5t30.5 167q0 159 -89.5 238t-236.5 79q-63 -1 -105 -10.5t-44 -9.5q-13 0 -25 8.5t-12 21.5t10.5 23t26.5 10q8 0 22 -6.5 t44.5 -12.5t80.5 -5q135 3 210 92t75 227q0 127 -66 210t-194 83q-162 0 -242 -139q45 -8 75 -44t30 -83q0 -53 -36.5 -90t-88.5 -37q-50 0 -85.5 36t-35.5 97q0 111 120 192.5t304 81.5q67 0 130 -12t118.5 -37.5t96.5 -62t65 -88.5t24 -113q0 -140 -118.5 -226.5 t-313.5 -91.5h-6v-6h6q93 0 175 -18t150 -54.5t108 -101t40 -149.5q0 -69 -27 -128t-73.5 -100t-108.5 -70t-132 -43t-145 -14q-190 0 -314 82t-124 191z" />
<glyph unicode="4" horiz-adv-x="1095" d="M37 346l211 236q71 73 132.5 195.5t61.5 246.5q0 190 -141 262q171 1 280 -62.5t109 -160.5q0 -45 -24.5 -92t-71 -96.5t-94 -92.5t-114.5 -103t-112 -106l-208 -221h573v242l184 186h11v-428q75 1 117 13t44 12q18 0 28.5 -10t10.5 -23t-12.5 -22t-26.5 -9q-7 0 -23.5 5 t-51.5 10t-86 6v-135q0 -106 42 -145.5t162 -39.5v-14h-610v14q122 0 166.5 41.5t44.5 147.5v131h-598z" />
<glyph unicode="5" horiz-adv-x="1091" d="M78 248q0 61 36 99t89 38t89 -37t36 -90q0 -52 -33.5 -89t-79.5 -40q73 -139 252 -139q89 0 154 33.5t100 90.5t51 119t16 132q0 169 -87.5 259.5t-237.5 90.5q-128 0 -254 -62q-11 -69 -49 -69q-29 0 -29 28q0 33 62 56l61 598q14 -1 98.5 -4.5t118.5 -4t110.5 -1t117 4 t93.5 12.5t84.5 23.5t47.5 36.5q37 -72 37 -129q0 -151 -199 -151q-190 0 -502 118l-51 -499q148 65 309 65q216 0 349.5 -102.5t133.5 -267.5q0 -174 -141.5 -283t-355.5 -109q-187 0 -306.5 82t-119.5 191z" />
<glyph unicode="6" horiz-adv-x="1181" d="M104 610q0 136 37.5 259t106 217t173.5 149t232 55q163 0 267 -81.5t104 -188.5q0 -61 -35 -100t-88 -39q-52 0 -88.5 37.5t-36.5 91.5q0 50 32 85.5t81 39.5q-53 141 -211 141q-70 0 -127 -26.5t-95 -72.5t-67.5 -107t-43.5 -130t-24.5 -142.5t-9.5 -144t2 -133.5 q25 126 123 202.5t238 76.5q178 0 292.5 -119.5t114.5 -286.5q0 -176 -130 -297t-339 -121q-112 0 -201 39.5t-145.5 102.5t-94 148t-52.5 170t-15 175zM319 391q2 -71 20 -139.5t51.5 -128t89.5 -96.5t126 -37q85 0 147.5 56t93 146t30.5 201q0 103 -25 184t-84.5 134 t-146.5 53q-127 0 -216 -99t-86 -274z" />
<glyph unicode="7" horiz-adv-x="958" d="M78 854v412h16l6 -289h2q5 55 12.5 96.5t22 82t34.5 66.5t52 42t74 16q53 0 103.5 -24.5t91 -59.5t80 -70t86 -59.5t94.5 -24.5q78 0 117.5 58t39.5 125q0 27 -2 41h17q4 -20 4 -41q0 -34 -11 -73t-20 -59.5t-37 -73.5t-35 -67q-138 -263 -201 -470t-81 -482h-228 q8 78 26.5 152t50.5 150t64.5 140t86 149t95.5 147.5t112 163.5q32 47 49 71q68 85 86 121l-4 2q-31 -48 -72.5 -76.5t-112.5 -28.5q-63 0 -202.5 38t-210.5 38q-105 0 -145 -55.5t-42 -157.5h-18z" />
<glyph unicode="8" horiz-adv-x="1185" d="M104 324q0 139 108 232t306 108q-180 15 -279.5 97t-99.5 208q0 143 124.5 232t330.5 89q203 0 328 -89t125 -232q0 -126 -100 -208t-279 -97q197 -15 305 -108t108 -232q0 -153 -129 -251t-358 -98q-232 0 -361 98t-129 251zM315 319q0 -65 14 -120.5t44.5 -104 t87 -76.5t133.5 -28t132.5 28t86 76.5t44 104t13.5 120.5q0 64 -14 121t-44 107.5t-86 80t-132 29.5q-77 0 -133.5 -29.5t-87 -80t-44.5 -107.5t-14 -121zM346 975q0 -60 13.5 -112.5t41 -96.5t77.5 -70t116 -26t115 26t76.5 70t41 96.5t13.5 112.5q0 59 -13.5 110.5 t-41 95.5t-76.5 69.5t-115 25.5t-116 -25.5t-77.5 -69.5t-41 -95.5t-13.5 -110.5z" />
<glyph unicode="9" horiz-adv-x="1181" d="M106 872q0 181 129.5 299.5t337.5 118.5q111 0 199.5 -38t144.5 -99.5t93 -145t52 -168.5t15 -175q0 -109 -22.5 -210t-68.5 -188t-111.5 -152t-157 -102t-199.5 -37q-169 0 -273 81t-104 188q0 61 35 100t88 39t89 -36.5t36 -90.5q0 -49 -32 -84.5t-78 -40.5 q60 -143 227 -143q72 0 131 28.5t96.5 77t66.5 112.5t41.5 135t22 144.5t7.5 140.5t-3 124q-25 -126 -120 -201.5t-238 -75.5q-180 0 -292 115t-112 284zM311 872q0 -162 64.5 -262t189.5 -100t211 95t86 265q0 71 -16.5 140t-48.5 130t-87.5 98.5t-125.5 37.5 q-127 0 -200 -115.5t-73 -288.5z" />
<glyph unicode=":" horiz-adv-x="487" d="M123 106q0 51 35 85t86 34t86 -34t35 -85t-35 -86.5t-86 -35.5t-86 35.5t-35 86.5zM123 717q0 51 35 85t86 34t86 -34t35 -85t-35 -86t-86 -35t-86 35t-35 86z" />
<glyph unicode=";" horiz-adv-x="526" d="M96 -252q99 36 163.5 111.5t64.5 160.5q-28 -22 -66 -22q-47 0 -81 34t-34 81q0 48 34.5 80t88.5 32q59 0 93 -42.5t34 -110.5q0 -97 -73.5 -190t-215.5 -144zM145 717q0 51 35 85t86 34t85 -34t34 -85t-34 -86t-85 -35t-86 35t-35 86z" />
<glyph unicode="&#x3c;" horiz-adv-x="968" d="M63 494v16l795 399v-20l-770 -387l770 -387v-21z" />
<glyph unicode="=" horiz-adv-x="1181" d="M135 276v21h912v-21h-912zM135 709v18h912v-18h-912z" />
<glyph unicode="&#x3e;" horiz-adv-x="968" d="M111 94v21l770 387l-770 387v20l794 -399v-16z" />
<glyph unicode="?" horiz-adv-x="1007" d="M68 1016q0 108 124.5 191t299.5 83q120 0 220.5 -42t162 -122.5t61.5 -183.5q0 -255 -455 -362l-8 -207h-12l-6 217q272 70 272 350q0 147 -66 241.5t-202 94.5q-171 0 -250 -139q44 -8 74 -44t30 -83q0 -53 -36 -90t-87 -37t-86.5 37t-35.5 96zM348 106q0 51 35 85 t86 34t86 -34t35 -85t-35 -86.5t-86 -35.5t-86 35.5t-35 86.5z" />
<glyph unicode="@" horiz-adv-x="1656" d="M94 416q0 131 44 253.5t121 217t177 166t217.5 109.5t237.5 38q188 0 340 -91t235.5 -243t83.5 -331q0 -186 -91 -304t-249 -118q-95 0 -152 37t-71 106q-134 -145 -289 -145q-110 0 -167.5 72t-57.5 194q0 185 120.5 311.5t297.5 126.5q136 0 196 -86l148 74l6 -6 l-100 -459q-11 -63 -11 -76q0 -119 111 -119q117 0 199 108t82 284q0 172 -81 317.5t-226 231t-322 85.5q-144 0 -275 -59t-225.5 -160t-150.5 -241.5t-56 -296.5q0 -132 42 -250.5t116.5 -207t185.5 -140.5t242 -52q121 0 241 39.5t214 112.5l8 -10q-203 -164 -465 -164 q-139 0 -263.5 51t-215.5 139.5t-144 215t-53 270.5zM637 371q0 -96 38 -152.5t109 -56.5q97 0 203 117q-2 4 -2 18q0 31 8 63l66 312q-37 125 -141 125q-80 0 -146.5 -68t-100.5 -165t-34 -193z" />
<glyph unicode="A" d="M-68 0v14q39 0 73 7.5t62 24.5t51 34.5t44 46.5t36 52t31.5 59t26.5 59.5t25.5 62.5t23.5 58l359 856h14l430 -983q22 -50 40 -84.5t44.5 -74t54 -63t64.5 -39.5t80 -16v-14h-625v14q72 0 113 26q41 28 48 84q1 9 1 17q0 52 -33 127l-72 168h-485l-21 -49 q-16 -42 -27 -74.5t-20.5 -73.5t-10 -71t8.5 -60.5t29.5 -50t58 -31.5t90.5 -12v-14h-514zM346 457h467l-235 555z" />
<glyph unicode="B" horiz-adv-x="1306" d="M63 0v14q66 0 104.5 9t59 33.5t26 55.5t5.5 87v868q0 56 -5.5 86.5t-26 55t-59 33.5t-104.5 9v15h605q497 0 497 -312q0 -134 -97 -209t-310 -88v-4q237 -12 342.5 -92t105.5 -227q0 -334 -497 -334h-646zM463 16h219q150 0 229.5 93t79.5 231t-83 221.5t-246 83.5h-199 v-629zM463 662h176q160 0 235.5 78t75.5 210q0 58 -15.5 109t-48.5 95t-93 69.5t-140 25.5h-190v-587z" />
<glyph unicode="C" horiz-adv-x="1370" d="M92 629q0 192 89.5 343t249 234.5t362.5 83.5q50 0 116 -6q67 -6 113 -11q31 -3 67 -3h37q58 2 109 16l35 -401h-13q-83 202 -193 296.5t-273 94.5q-98 0 -177.5 -34.5t-134 -93.5t-91 -142t-53 -177t-16.5 -200q0 -103 15.5 -195t50 -174t86.5 -141.5t130 -94t175 -34.5 q331 0 510 409h10l-67 -362q-81 -26 -208.5 -44t-229.5 -18q-157 0 -288.5 49.5t-221 136t-139.5 207.5t-50 261z" />
<glyph unicode="D" horiz-adv-x="1501" d="M63 0v14q66 0 104.5 9t59 33.5t26 55.5t5.5 87v868q0 56 -5.5 86.5t-26 55t-59 33.5t-104.5 9v15h625q328 0 523.5 -172.5t195.5 -460.5t-195 -460.5t-524 -172.5h-625zM463 16h213q104 0 189 31.5t143.5 87.5t98 134t57.5 169t18 195t-18 195t-57.5 169t-98 133.5 t-143.5 87t-189 31.5h-213v-1233z" />
<glyph unicode="E" horiz-adv-x="1271" d="M63 0v14q66 0 104.5 9t59 33.5t26 55.5t5.5 87v868q0 56 -5.5 86.5t-26 55t-59 33.5t-104.5 9v15h1051l25 -377l-11 -2q-17 76 -39 129.5t-60 100t-92.5 74t-135 43t-189.5 15.5h-149v-610h41q203 0 287.5 56.5t109.5 211.5h12v-551h-12q-17 104 -59 161t-121 81.5 t-217 24.5h-41v-607h172q94 0 168 13t126 40.5t88.5 59.5t62.5 80.5t41.5 91.5t31.5 105l12 -3l-39 -403h-1063z" />
<glyph unicode="F" horiz-adv-x="1193" d="M63 0v14q66 0 104.5 9t59 33.5t26 55.5t5.5 87v868q0 56 -5.5 86.5t-26 55t-59 33.5t-104.5 9v15h1047l27 -400l-11 -2q-17 77 -39 132.5t-61 106t-93.5 81t-135.5 48t-189 17.5h-145v-624h37q201 0 286.5 62.5t112.5 219.5h12v-581h-12q-18 106 -59.5 166t-122 88 t-217.5 28h-37v-405q0 -57 7 -90t29.5 -57t62 -33t106.5 -9v-14h-605z" />
<glyph unicode="G" horiz-adv-x="1554" d="M92 625q0 194 97 347t261 235.5t363 82.5q49 0 119 -6t122 -11q34 -3 73 -3h41q62 3 112 16l37 -395h-12q-157 385 -492 385q-123 0 -219 -52t-155 -143t-89.5 -207t-30.5 -251q0 -103 17 -194.5t55 -172.5t94 -139.5t139 -92.5t185 -34q168 0 338 96v297q0 56 -7 89 t-28.5 59.5t-63.5 37.5t-110 11v12h594v-12q-63 0 -99.5 -8.5t-54.5 -32.5t-23 -53t-5 -85v-335q-256 -89 -512 -89q-152 0 -277.5 36t-211 97t-144.5 144.5t-86 176.5t-27 194z" />
<glyph unicode="H" horiz-adv-x="1589" d="M63 0v14q66 0 104.5 9t59 33.5t26 55.5t5.5 87v868q0 56 -5.5 86.5t-26 55t-59 33.5t-104.5 9v15h594v-15q-66 0 -104.5 -9t-58.5 -33.5t-25.5 -55t-5.5 -86.5v-414h663v414q0 56 -5.5 86.5t-25.5 55t-58.5 33.5t-104.5 9v15h594v-15q-66 0 -104.5 -9t-59 -33.5t-26 -55 t-5.5 -86.5v-868q0 -56 5.5 -87t26 -55.5t59 -33.5t104.5 -9v-14h-594v14q66 0 104.5 9t58.5 34t25.5 55.5t5.5 86.5v436h-663v-436q0 -56 5.5 -86.5t25.5 -55.5t58.5 -34t104.5 -9v-14h-594z" />
<glyph unicode="I" horiz-adv-x="720" d="M63 0v14q66 0 104.5 9t59 33.5t26 55.5t5.5 87v868q0 56 -5.5 86.5t-26 55t-59 33.5t-104.5 9v15h594v-15q-66 0 -104.5 -9t-58.5 -33.5t-25.5 -55t-5.5 -86.5v-868q0 -56 5.5 -86.5t25.5 -55.5t58.5 -34t104.5 -9v-14h-594z" />
<glyph unicode="J" horiz-adv-x="692" d="M33 -334q80 41 128 99.5t65.5 119.5t17.5 138v1044q0 56 -5.5 86.5t-26 55t-59 33.5t-104.5 9v15h594v-15q-66 0 -104.5 -9t-58.5 -33.5t-25.5 -55t-5.5 -86.5v-1004q0 -78 -33.5 -144.5t-92.5 -115.5t-130 -84.5t-156 -60.5z" />
<glyph unicode="K" horiz-adv-x="1415" d="M63 0v14q66 0 104.5 9t59 33.5t26 55.5t5.5 87v868q0 56 -5.5 86.5t-26 55t-59 33.5t-104.5 9v15h594v-15q-66 0 -104.5 -9t-58.5 -33.5t-25.5 -55t-5.5 -86.5v-537l379 385q168 168 168 250q0 86 -164 86v15h571v-15q-157 0 -301 -104q-79 -60 -258 -242l-110 -110 l434 -605q71 -99 134.5 -138.5t133.5 -39.5v-12h-385l-461 649l-141 -145v-305q0 -56 5.5 -86.5t25.5 -55.5t58.5 -34t104.5 -9v-14h-594z" />
<glyph unicode="L" horiz-adv-x="1191" d="M63 0v14q66 0 104.5 9t59 33.5t26 55.5t5.5 87v868q0 56 -5.5 86.5t-26 55t-59 33.5t-104.5 9v15h605v-15q-66 0 -106 -9t-62.5 -33.5t-29.5 -57t-7 -88.5v-1047h135q108 0 190 20t136.5 53.5t93.5 88t61 111.5t39 135l12 -2l-26 -422h-1041z" />
<glyph unicode="M" horiz-adv-x="1826" d="M12 0v14q46 0 77.5 4t61.5 18.5t49 36t37 64t28.5 94.5t21 134.5t17 178t13.5 230.5l11 164q1 23 1 45q0 131 -47 194q-55 74 -202 74v15h420l461 -965l395 965h379v-15q-66 0 -107.5 -15t-60.5 -47q-19 -31 -25 -67q-4 -23 -3 -55q0 -17 1 -37l37 -809 q6 -116 47.5 -161.5t159.5 -45.5v-14h-600v14q119 0 157 48q32 41 32 123q0 15 -1 32l-47 926l-451 -1096h-12l-508 1036l-18 -309q-14 -278 -14 -430q0 -83 4 -128q12 -133 66 -172q40 -30 140 -30v-14h-520z" />
<glyph unicode="N" horiz-adv-x="1484" d="M43 0v14q178 0 215 125t37 627v182q0 82 -9.5 134.5t-36.5 93t-75.5 58t-124.5 17.5v15h381l764 -938v172q0 502 -37 626.5t-215 124.5v15h522v-15q-178 0 -214 -123.5t-36 -627.5v-508l-12 -2l-887 1083v-307q0 -504 36 -628t214 -124v-14h-522z" />
<glyph unicode="O" horiz-adv-x="1523" d="M92 633q0 137 50 258t137.5 209t212.5 139t270 51t270 -51t212.5 -139t137.5 -209t50 -258t-50 -258.5t-137.5 -209.5t-212.5 -139t-270 -51q-144 0 -269 51t-213 139t-138 209.5t-50 258.5zM317 633q0 -102 14 -192.5t47 -173.5t83 -142.5t127 -95t174 -35.5t174 35.5 t127 95t82.5 142.5t46.5 173.5t14 192.5q0 103 -13.5 193t-46 173.5t-82 142.5t-127 94.5t-175.5 35.5t-175 -35.5t-127 -95t-83 -143t-46.5 -173.5t-13.5 -192z" />
<glyph unicode="P" horiz-adv-x="1220" d="M63 0v14q66 0 104.5 9t59 33.5t26 55.5t5.5 87v868q0 56 -5.5 86.5t-26 55t-59 33.5t-104.5 9v15h586q270 0 396 -96.5t126 -264.5q0 -166 -126 -261t-396 -95h-78v14h54q163 0 246 96.5t83 245.5q0 151 -83 247.5t-246 96.5h-162v-1050q0 -56 5.5 -86.5t25.5 -55.5 t58.5 -34t104.5 -9v-14h-594z" />
<glyph unicode="Q" horiz-adv-x="1523" d="M92 633q0 137 50 258t137.5 209t212.5 139t270 51t270 -51t212.5 -139t137.5 -209t50 -258q0 -175 -77.5 -320.5t-219 -235t-320.5 -100.5q58 -5 117.5 -31.5t109 -59.5t97.5 -65.5t101 -54.5t103 -22q123 0 209 141l13 -8q-25 -45 -48.5 -79t-63.5 -76t-92.5 -65.5 t-113.5 -23.5q-60 0 -123.5 25t-118.5 60.5t-108.5 71t-112.5 60.5t-112 25q-119 0 -219 -139l-13 8q4 6 14 19q33 45 53.5 70t57.5 61t79.5 56t92.5 27q-186 5 -334 93.5t-229.5 236t-81.5 326.5zM317 633q0 -102 14 -192.5t47 -173.5t83 -142.5t127 -95t174 -35.5 t174 35.5t127 95t82.5 142.5t46.5 173.5t14 192.5q0 103 -13.5 193t-46 173.5t-82 142.5t-127 94.5t-175.5 35.5t-175 -35.5t-127 -95t-83 -143t-46.5 -173.5t-13.5 -192z" />
<glyph unicode="R" horiz-adv-x="1382" d="M63 0v14q66 0 104.5 9t59 33.5t26 55.5t5.5 87v868q0 56 -5.5 86.5t-26 55t-59 33.5t-104.5 9v15h588q266 0 409.5 -84t143.5 -244q0 -73 -31 -129.5t-79 -90.5t-116 -56.5t-132 -31.5t-137 -12v-6q76 -2 134.5 -11t98.5 -21.5t70 -37t47.5 -46.5t33 -61t23.5 -69.5 t23 -83.5t28 -92q35 -103 76.5 -140.5t128.5 -37.5v-12h-350q-37 76 -74 203q-8 31 -20 77t-18.5 70.5t-17 60t-19 54t-22 43.5t-27.5 37.5t-34.5 27.5t-44 21.5t-54.5 11t-68 4.5h-160v-411q0 -56 5.5 -86.5t25.5 -55.5t58.5 -34t104.5 -9v-14h-594zM463 625h168 q175 0 267.5 87.5t92.5 229.5q0 141 -92.5 224t-271.5 83h-164v-624z" />
<glyph unicode="S" horiz-adv-x="1140" d="M119 412l12 2q6 -16 19 -50q14 -39 21.5 -59t23.5 -57t28 -58t33 -52t41 -49t49 -39.5t60.5 -32.5t71.5 -19t85 -8q152 0 230.5 73t78.5 183q0 61 -25 109t-68 80.5t-98 59t-116 49.5t-122.5 46.5t-116.5 55t-98 70.5t-68 98t-25 132q0 154 107.5 249t322.5 95 q49 0 107 -6t97 -11q35 -5 80 -5h9q50 0 96 12l27 -387l-10 -2q-52 131 -78 178q-112 201 -314 207h-12q-130 0 -201 -69t-71 -171q0 -73 41 -127.5t106 -88.5t143.5 -63.5t157.5 -63t144 -77t106 -115t41 -167.5q0 -163 -118.5 -261t-362.5 -98q-168 0 -412 56z" />
<glyph unicode="T" horiz-adv-x="1304" d="M63 831l37 435h1104l37 -435l-12 -2q-23 85 -38 131t-50.5 110t-79 97t-118.5 57.5t-175 24.5h-12v-1046q0 -57 7 -90t29.5 -57t62 -33t106.5 -9v-14h-617v14q67 0 106.5 9t62 33t29.5 57t7 90v1046h-12q-100 0 -175 -24.5t-118.5 -57.5t-79 -97t-50.5 -110t-38 -131z " />
<glyph unicode="U" horiz-adv-x="1419" d="M39 1251v15h594v-15q-66 0 -105 -10t-58.5 -36t-25.5 -58t-6 -88v-660q0 -397 330 -397q177 0 278 109.5t101 302.5v123q0 103 -0.5 170t-3 139.5t-6 116t-10.5 90.5t-16 72t-24 51t-32 37.5t-41.5 21.5t-52 13t-64.5 3v15h518v-15q-175 0 -211.5 -120t-36.5 -594v-123 q0 -213 -118 -326t-334 -113q-96 0 -178.5 23t-152.5 73t-110.5 139.5t-40.5 211.5v637q0 56 -5.5 87.5t-25.5 58t-59 36.5t-104 10z" />
<glyph unicode="V" horiz-adv-x="1323" d="M-33 1251v15h619v-15q-120 1 -152 -63q-12 -24 -12 -56q0 -54 33 -133l303 -747l207 528q96 244 96 336q0 64 -44 99.5t-134 35.5v15h503v-15q-154 0 -239 -129q-66 -104 -162 -350l-311 -780h-12l-418 989q-22 52 -38 85t-41.5 72t-51.5 61t-63.5 37t-82.5 15z" />
<glyph unicode="W" horiz-adv-x="1972" d="M-35 1251v15h602v-15q-119 1 -147 -59q-10 -22 -10 -52q0 -52 32 -130l301 -756l250 645l-28 82q-47 130 -111 200t-162 70v15h608v-15q-120 1 -150 -63q-11 -24 -12 -59q0 -54 29 -130l260 -733l191 520q82 228 82 330q0 135 -172 135v15h504v-15q-162 0 -244 -129 q-51 -78 -150 -346l-297 -784h-12l-323 874l-344 -874h-13l-407 989q-21 50 -36 82.5t-40.5 72t-51.5 61.5t-64.5 38t-84.5 16z" />
<glyph unicode="X" horiz-adv-x="1370" d="M-53 0v14q95 0 168.5 36.5t142.5 99.5q119 114 285 356l61 86l-213 334q-26 40 -34.5 53t-34 50t-37.5 51.5t-37 44.5t-41 43t-41.5 32.5t-46.5 28t-47.5 15.5t-53.5 7v15h625v-15q-66 1 -99 -21q-33 -21 -33 -59q-1 -38 17 -81q16 -42 50 -93l176 -280l49 69 q94 137 136 217.5t42 137.5q0 110 -152 110v15h576v-15q-95 0 -167.5 -34.5t-141.5 -96.5q-121 -113 -281 -348l-51 -72l240 -374q43 -68 80 -117t84 -97t99 -73t107 -25v-14h-622v14q132 0 132 85q0 61 -67 165l-203 311l-57 -79q-97 -144 -139.5 -225.5t-42.5 -139.5 q0 -53 38.5 -85t118.5 -32v-14h-585z" />
<glyph unicode="Y" horiz-adv-x="1347" d="M-10 1251v15h618v-15q-147 0 -147 -92q0 -53 51 -139l254 -428h6l86 145q107 179 149 266t42 138q0 110 -175 110v15h539v-15q-95 0 -161 -32t-119 -95q-58 -68 -261 -399l-86 -141v-334q0 -50 2.5 -80t14 -63.5t33 -51t60 -29.5t95.5 -12v-14h-616v14q57 0 95.5 12 t60 29.5t33 51t14 63.5t2.5 80v270l-283 471q-36 59 -65 99t-67.5 80.5t-82.5 60.5t-92 20z" />
<glyph unicode="Z" horiz-adv-x="1220" d="M68 4l809 1243h-398q-260 0 -364 -383l-13 2l29 400h989l4 -4l-815 -1244h449q64 0 117.5 25t90 62t68.5 94t50.5 106t37.5 113h13l-39 -418h-1026z" />
<glyph unicode="[" horiz-adv-x="591" d="M139 -344v1761h445v-14h-193q-96 0 -96 -88v-1559q0 -88 96 -88h193v-12h-445z" />
<glyph unicode="\" horiz-adv-x="907" d="M51 1417l21 8l784 -1759l-18 -8z" />
<glyph unicode="]" horiz-adv-x="591" d="M8 -332h193q96 0 96 88v1559q0 88 -96 88h-193v14h445v-1761h-445v12z" />
<glyph unicode="^" horiz-adv-x="980" d="M94 700l389 600h15l391 -600l-8 -4l-389 389l-390 -389z" />
<glyph unicode="_" horiz-adv-x="1056" d="M0 -100h1057v-19h-1057v19z" />
<glyph unicode="`" horiz-adv-x="634" d="M142.5 1228.5q-3.5 35.5 19.5 59.5q23 27 58.5 27t68.5 -31q20 -18 51.5 -60.5t87 -124t90.5 -130.5l-4 -4q-53 31 -138 78.5t-131 75t-67 44.5q-32 30 -35.5 65.5z" />
<glyph unicode="a" horiz-adv-x="1015" d="M84 207q0 114 93 173.5t237 59.5q114 0 231 -37v203q0 110 -41.5 170t-142.5 60q-133 0 -197 -107q34 -11 56 -40.5t22 -65.5q0 -46 -32.5 -78.5t-78.5 -32.5q-49 0 -79.5 37.5t-30.5 85.5q0 87 98 151t248 64q56 0 107.5 -10t99.5 -32t83 -55.5t56 -83.5t21 -112v-457 q0 -75 59 -75q47 0 85 41.5t56 83.5l15 -7q-84 -161 -224 -161q-70 0 -117 37t-57 102q-110 -144 -289 -144q-126 0 -202 63t-76 167zM279 213q0 -93 42.5 -145t116.5 -52q114 0 207 125v246q-102 29 -166 29q-93 0 -146.5 -50t-53.5 -153z" />
<glyph unicode="b" horiz-adv-x="1077" d="M0 1317v12l340 41v-655q114 135 283 135q111 0 196 -60t128.5 -156.5t43.5 -211.5q0 -195 -122 -320t-316 -125q-145 0 -248 76l-143 -76l-8 5v1208q0 74 -34 100.5t-120 26.5zM340 117q63 -123 188 -123q67 0 119 36t82.5 96.5t46 132.5t15.5 151q0 108 -25 192.5 t-82 138.5t-141 54q-112 0 -203 -105v-573z" />
<glyph unicode="c" horiz-adv-x="931" d="M84 403q0 135 62 238.5t161 156t215 52.5q142 0 236 -76t94 -172q0 -54 -31.5 -90.5t-81.5 -36.5q-49 0 -80.5 33t-31.5 80q0 46 27.5 77.5t70.5 36.5q-55 134 -182 134q-84 0 -144 -59t-88 -152t-28 -209q0 -187 73 -293.5t205 -106.5q98 0 173.5 58t119.5 153l12 -8 q-22 -47 -52.5 -87t-75 -76.5t-108 -57.5t-138.5 -21q-186 0 -297 121.5t-111 304.5z" />
<glyph unicode="d" horiz-adv-x="1099" d="M84 410q0 193 119 316.5t301 123.5q152 0 227 -88v428q0 77 -37 102t-127 25v12l351 41v-1231q0 -74 33.5 -99.5t119.5 -25.5v-14h-338v121q-109 -144 -280 -144q-108 0 -193.5 60t-130.5 158t-45 215zM287 422q0 -104 24 -189t81.5 -143.5t142.5 -58.5q116 0 196 112 v514q-5 70 -58.5 123.5t-133.5 53.5q-77 0 -135.5 -59.5t-87.5 -152t-29 -200.5z" />
<glyph unicode="e" horiz-adv-x="970" d="M84 420q0 191 121.5 310.5t300.5 119.5q77 0 145 -24.5t121.5 -70.5t84.5 -120.5t32 -167.5h-606v-31q0 -187 67 -298q73 -120 217 -120q107 0 186 61.5t121 145.5l15 -6q-23 -44 -53 -82t-76 -76.5t-112 -61t-144 -22.5q-132 0 -229.5 63.5t-144 162.5t-46.5 217z M285 483h405q-1 36 -3.5 69t-9.5 76t-20.5 77.5t-32.5 65.5t-50 48t-70 17q-64 0 -112.5 -50.5t-74.5 -129t-32 -173.5z" />
<glyph unicode="f" horiz-adv-x="657" d="M35 807v20h176v162q0 90 28.5 160.5t77.5 113.5t110 65t130 22q125 0 201 -63t76 -144q0 -53 -31.5 -85t-77.5 -32t-77.5 33t-31.5 80q0 40 22.5 69.5t59.5 38.5q-37 90 -131 90q-87 0 -128.5 -73.5t-41.5 -192.5v-244h230v-20h-230v-666q0 -80 39.5 -103.5t132.5 -23.5 v-14h-522v14q90 0 127 25t37 102v666h-176z" />
<glyph unicode="g" horiz-adv-x="923" d="M29 -172q0 42 25 74.5t66.5 51t78.5 29t77 15.5q-143 31 -143 123q0 100 158 155q-97 34 -152 106t-55 167q0 132 102.5 216.5t266.5 84.5q112 0 200 -43q19 35 42.5 81.5t35 68.5t26.5 46t28.5 34.5t29.5 13.5q27 8 53.5 -7.5t32.5 -44.5q5 -13 5 -25q0 -27 -25 -52 q-16 -16 -49 -35t-85 -44.5t-81 -41.5q75 -40 116 -105t41 -147q0 -129 -102.5 -213t-267.5 -84q-85 0 -146 20q-59 -21 -59 -63q0 -28 35.5 -42.5t92.5 -19t126 -8t137.5 -14.5t125.5 -32t92.5 -67t35.5 -114q0 -126 -118 -197t-339 -71q-181 0 -294 47.5t-113 136.5z M150 -162q0 -85 74 -133.5t222 -48.5q88 0 154.5 18t101.5 47t51.5 60t16.5 63q0 36 -22.5 61t-57.5 37.5t-86.5 20.5t-98.5 11t-106 8t-98 12q-69 -16 -110 -55t-41 -101zM279 549q0 -82 16 -143t56 -101.5t102 -40.5t102 40.5t56 101.5t16 143q0 128 -41.5 207.5 t-132.5 79.5t-132.5 -79.5t-41.5 -207.5z" />
<glyph unicode="h" horiz-adv-x="1107" d="M27 0v14q86 0 119.5 25.5t33.5 99.5v1051q0 75 -33.5 101t-119.5 26v12l342 41v-698q33 34 61.5 58.5t72 55.5t93.5 47.5t102 16.5q102 0 169 -66.5t67 -199.5v-445q0 -74 33.5 -99.5t119.5 -25.5v-14h-489v14q82 0 116 25.5t34 99.5v455q0 88 -38.5 134t-111.5 46 q-36 0 -69.5 -10.5t-63.5 -31t-50 -38t-46 -43.5v-512q0 -74 33.5 -99.5t119.5 -25.5v-14h-495z" />
<glyph unicode="i" horiz-adv-x="573" d="M47 0v14q86 0 120 25.5t34 99.5v531q0 74 -34 99.5t-120 25.5v12l342 41v-709q0 -74 34 -99.5t120 -25.5v-14h-496zM158 1135q0 50 36 83t89 33t88 -32.5t35 -83.5q0 -52 -35 -85.5t-88 -33.5t-89 33.5t-36 85.5z" />
<glyph unicode="j" horiz-adv-x="526" d="M6 -354q43 24 74.5 49t50.5 53t31 52t17 59t6 59t1 66v684q0 75 -36 101t-123 26v12l346 41v-828q0 -266 -359 -380zM143 1135q0 50 36 83t89 33q52 0 86.5 -32.5t34.5 -83.5q0 -52 -34.5 -85.5t-86.5 -33.5q-53 0 -89 33.5t-36 85.5z" />
<glyph unicode="k" horiz-adv-x="1054" d="M27 0v14q86 0 119.5 25.5t33.5 99.5v1051q0 75 -33.5 101t-119.5 26v12l342 41v-1014l204 207q117 117 117 176q0 74 -131 74v14h465v-14q-118 0 -229 -76q-91 -66 -187 -162l-28 -26l278 -406q89 -129 217 -129v-14h-334l-290 414l-82 -80v-195q0 -74 33.5 -99.5 t119.5 -25.5v-14h-495z" />
<glyph unicode="l" horiz-adv-x="555" d="M31 0v14q86 0 119.5 25.5t33.5 99.5v1051q0 75 -33.5 101t-119.5 26v12l340 41v-1231q0 -74 33.5 -99.5t119.5 -25.5v-14h-493z" />
<glyph unicode="m" horiz-adv-x="1648" d="M45 0v14q86 0 120 25.5t34 99.5v531q0 74 -34 99.5t-120 25.5v12l336 41v-170q32 33 60.5 57.5t70.5 53.5t90 45t98 16q81 0 141 -44.5t79 -133.5q33 34 61 58.5t71.5 55.5t93 47.5t101.5 16.5q100 0 164 -66.5t64 -199.5v-445q0 -74 33.5 -99.5t119.5 -25.5v-14h-485v14 q81 0 114 25.5t33 99.5v455q0 180 -143 180q-65 0 -118 -33.5t-105 -87.5q6 -60 6 -69v-445q0 -74 32.5 -99.5t116.5 -25.5v-14h-483v14q81 0 114 25.5t33 99.5v455q0 180 -143 180q-106 0 -217 -115v-520q0 -74 33 -99.5t114 -25.5v-14h-485z" />
<glyph unicode="n" horiz-adv-x="1124" d="M45 0v14q86 0 120 25.5t34 99.5v531q0 74 -34 99.5t-120 25.5v12l338 41v-178q33 34 62 59t73 56t94.5 48t102.5 17q102 0 169.5 -66.5t67.5 -199.5v-445q0 -74 34 -99.5t120 -25.5v-14h-490v14q82 0 115 25.5t33 99.5v455q0 88 -38 134t-110 46q-47 0 -94 -21.5 t-74 -43.5t-63 -58v-512q0 -74 34 -99.5t116 -25.5v-14h-490z" />
<glyph unicode="o" horiz-adv-x="1050" d="M84 414q0 103 38 187.5t101 138t141 82t162 28.5q83 0 161 -28.5t141.5 -82t102 -138t38.5 -187.5q0 -104 -38.5 -189t-102 -138t-141.5 -81.5t-161 -28.5q-84 0 -162 28.5t-141 81.5t-101 138t-38 189zM287 414q0 -195 58.5 -307.5t180.5 -112.5q121 0 179.5 113 t58.5 307t-58.5 305.5t-179.5 111.5q-122 0 -180.5 -111.5t-58.5 -305.5z" />
<glyph unicode="p" horiz-adv-x="1099" d="M29 -319q86 0 119.5 26t33.5 100v861q0 75 -33.5 101t-119.5 26v12l338 41v-143q113 145 280 145q107 0 192.5 -60.5t131 -159.5t45.5 -216q0 -189 -114.5 -313t-301.5 -124q-158 0 -231 86v-260q0 -73 35.5 -97.5t123.5 -24.5v-15h-499v15zM369 186q0 -79 55 -135.5 t137 -56.5q79 0 138 58.5t87.5 150t28.5 200.5q0 77 -14 145t-42.5 125t-78 90.5t-113.5 33.5q-116 0 -198 -115v-496z" />
<glyph unicode="q" horiz-adv-x="1073" d="M84 403q0 195 123 321t315 126q146 0 254 -80l133 76h11v-1039q0 -74 33.5 -100t119.5 -26v-15h-500v15q88 0 124 25.5t36 100.5v299q-116 -129 -278 -129q-111 0 -197 60t-130 156t-44 210zM287 418q0 -109 25 -193t82 -138t141 -54q112 0 198 100v584q-66 117 -186 117 q-67 0 -118.5 -36t-81.5 -96.5t-45 -132.5t-15 -151z" />
<glyph unicode="r" horiz-adv-x="806" d="M45 0v14q86 0 120 26.5t34 100.5v527q0 74 -34 100.5t-120 26.5v12l338 41v-252q42 107 114.5 181.5t155.5 74.5q59 0 92 -36.5t33 -86.5t-34 -84.5t-80 -34.5q-54 0 -88 40q-29 34 -28 77q0 9 1 18q-54 -17 -97 -65t-67 -105v-434q0 -76 36 -101.5t124 -25.5v-14h-500z " />
<glyph unicode="s" horiz-adv-x="851" d="M96 270l13 2q20 -49 33.5 -78t42 -73t57.5 -68.5t75 -43.5t101 -19q95 0 144.5 48t49.5 112q0 47 -27.5 81.5t-72 56.5t-98 41t-106.5 41.5t-97.5 51.5t-72 77t-27.5 111q0 109 79.5 174.5t235.5 65.5q42 0 102 -6t90 -8h10q29 0 81 8l16 -266l-10 -3q-18 40 -30.5 65.5 t-40.5 67.5t-55.5 66.5t-70 44t-90.5 19.5q-82 0 -128 -45t-46 -107q0 -45 28 -79.5t73 -56t99 -41t108 -42.5t99 -52t73 -77t28 -111q0 -115 -89.5 -182.5t-258.5 -67.5q-123 0 -303 37z" />
<glyph unicode="t" horiz-adv-x="669" d="M31 807v20h153v217l189 31v-248h258v-20h-258v-610q0 -78 30 -122t91 -44q88 0 180 114l10 -8q-27 -34 -50.5 -57.5t-57.5 -48.5t-75 -38t-89 -13q-104 0 -166 60t-62 173v594h-153z" />
<glyph unicode="u" horiz-adv-x="1107" d="M20 795v12l340 41v-615q0 -88 38.5 -135t111.5 -47q66 0 120.5 34.5t108.5 90.5v492q0 74 -33 100.5t-114 26.5v12l336 41v-707q0 -75 33.5 -101t119.5 -26v-14h-338v156q-33 -34 -61.5 -59t-72.5 -55.5t-95 -47.5t-104 -17q-102 0 -169 66t-67 199v426q0 74 -34 100.5 t-120 26.5z" />
<glyph unicode="v" horiz-adv-x="989" d="M-27 813v14h547v-14q-77 0 -113.5 -21t-36.5 -60.5t23 -96.5l185 -436l84 207q98 242 98 313q0 94 -137 94v14h395v-14q-134 0 -205 -113q-31 -48 -137 -305l-174 -411h-15l-282 630q-47 107 -97.5 153t-134.5 46z" />
<glyph unicode="w" horiz-adv-x="1486" d="M-25 813v14h525v-14q-98 -1 -122 -47q-9 -17 -9 -40q0 -38 24 -91l185 -436l165 409l-10 23q-40 99 -78 140.5t-106 41.5v14h506v-14q-110 0 -138 -46q-12 -20 -12 -47q0 -36 21 -85l164 -428l84 219q83 220 83 293q0 46 -30 70t-103 24v14h389v-14q-137 0 -202 -111 q-10 -15 -19 -33.5t-22 -49t-21.5 -51.5t-28 -71.5t-30.5 -78.5l-176 -434h-15l-243 594l-252 -594h-15l-282 630q-47 107 -97.5 153t-134.5 46z" />
<glyph unicode="x" horiz-adv-x="1007" d="M-8 0v14q124 0 217 88q17 17 39.5 43.5t36 44t48.5 64.5t48 65l49 68l-147 227q-47 72 -81 111t-82.5 63.5t-109.5 24.5v14h518v-14q-82 -1 -102 -43q-6 -13 -6 -28q0 -35 31 -83l114 -178l39 54q103 142 103 198q0 43 -31.5 61.5t-95.5 18.5v14h407v-14 q-61 0 -110.5 -20t-98.5 -68q-43 -41 -164 -205l-39 -53l162 -250q73 -112 131.5 -157.5t151.5 -45.5v-14h-528v14q59 0 86.5 21.5t24 56t-31.5 78.5l-133 203l-45 -66q-108 -151 -108 -211q0 -44 32 -63t97 -19v-14h-422z" />
<glyph unicode="y" horiz-adv-x="997" d="M-20 813v14h546v-14q-78 0 -114 -21q-37 -21 -37 -59q0 -40 24 -98l185 -440l73 184q62 152 86.5 226.5t24.5 113.5q0 94 -137 94v14h395v-14q-137 0 -207 -115q-11 -18 -26 -50t-28.5 -64t-41 -97t-49.5 -116l-197 -461q-19 -44 -43.5 -85.5t-60 -84.5t-82.5 -69.5 t-98 -26.5q-42 0 -65.5 19t-23.5 52q0 39 30.5 60.5t78.5 32.5t98.5 23t97.5 42.5t70 81.5l13 29l-281 630q-49 108 -98 153.5t-133 45.5z" />
<glyph unicode="z" horiz-adv-x="909" d="M76 8l524 805h-219q-56 0 -104.5 -28t-81.5 -75t-55 -96.5t-36 -103.5h-12l31 317h686l6 -8l-522 -803h233q185 0 289 295h12l-32 -311h-713z" />
<glyph unicode="{" horiz-adv-x="665" d="M-14 528v17q164 0 242.5 72.5t78.5 244.5q0 75 -20.5 185t-20.5 159q0 41 10.5 73.5t36 61.5t67 48t106.5 30t151 11v-13q-80 -1 -132.5 -12.5t-80.5 -34.5t-38.5 -51t-10.5 -70q0 -70 27.5 -162t55 -178t27.5 -141q0 -62 -29.5 -105t-88.5 -67.5t-123.5 -36.5 t-159.5 -20v-7q64 -7 108.5 -13t94.5 -17.5t82.5 -27.5t60.5 -38.5t41.5 -55.5t13.5 -75q0 -55 -27.5 -141t-55 -178t-27.5 -162q0 -42 10.5 -70.5t38.5 -51.5t80.5 -34t132.5 -12v-12q-107 0 -181 15.5t-115 46.5t-58 69.5t-17 91.5q0 48 20.5 158t20.5 186 q0 172 -78.5 244.5t-242.5 72.5z" />
<glyph unicode="|" horiz-adv-x="301" d="M139 -344v1761h21v-1761h-21z" />
<glyph unicode="}" horiz-adv-x="665" d="M29 -344q80 1 132.5 12t80.5 34t38.5 51.5t10.5 70.5q0 56 -17.5 126.5t-38 126t-38 119.5t-17.5 109q0 50 21.5 87.5t54 60t89 39t108 24.5t129.5 16v7q-75 6 -129 14t-108.5 24.5t-88.5 40.5t-55 62t-21 88q0 45 17.5 109t38 119.5t38 126t17.5 126.5q0 42 -10.5 70 t-38.5 51t-80.5 34.5t-132.5 12.5v13q107 0 181 -16t114.5 -47.5t57.5 -70t17 -90.5q0 -49 -20.5 -159t-20.5 -185q0 -172 79 -244.5t243 -72.5v-17q-164 0 -243 -72.5t-79 -244.5q0 -76 20.5 -186t20.5 -158q0 -53 -17 -91.5t-57.5 -69.5t-114.5 -46.5t-181 -15.5v12z" />
<glyph unicode="~" horiz-adv-x="978" d="M135 381q11 49 21 84.5t27 74t37 62.5t50.5 39.5t67.5 15.5q44 0 95 -22.5t89.5 -50t86 -50t87.5 -22.5q108 0 142 147l10 -2q-10 -48 -19.5 -82t-26 -73.5t-36.5 -63.5t-50.5 -40.5t-68.5 -16.5q-44 0 -94.5 22.5t-89 50t-87.5 50t-89 22.5q-102 0 -140 -149z" />
<glyph unicode="&#xa1;" horiz-adv-x="436" d="M98 715q0 51 34 86t85 35t86 -35t35 -86t-35 -85t-86 -34t-85 34t-34 85zM100 -332q0 41 23 139.5t50.5 268t35.5 370.5h18q8 -201 36 -370.5t51.5 -268t23.5 -139.5q0 -62 -32.5 -99.5t-86.5 -37.5q-52 0 -85.5 37.5t-33.5 99.5z" />
<glyph unicode="&#xa2;" horiz-adv-x="964" d="M96 649q0 131 59.5 233.5t154.5 156t208 57.5v168h21v-168q71 -1 133.5 -22.5t103.5 -56.5t64.5 -79.5t23.5 -89.5q0 -54 -31 -90.5t-81 -36.5q-49 0 -81 33t-32 80q0 46 27.5 77.5t70.5 36.5q-55 133 -182 133q-84 0 -144 -58.5t-88 -151.5t-28 -209q0 -187 73 -293.5 t205 -106.5q98 0 173.5 58t119.5 153l13 -8q-21 -44 -49.5 -82.5t-69.5 -73.5t-98.5 -57.5t-124.5 -26.5v-190h-19v188q-195 0 -308.5 121t-113.5 305z" />
<glyph unicode="&#xa3;" horiz-adv-x="1193" d="M102 117q0 66 54.5 104.5t146.5 38.5q55 0 113 -12q-6 47 -24 104t-35.5 96.5t-50 109.5t-46.5 101h-156v19h150q-61 143 -61 250q0 163 125 262.5t321 99.5q187 0 302.5 -86t115.5 -196q0 -61 -36.5 -98.5t-88.5 -37.5q-51 0 -87 37t-36 90q0 51 32.5 87.5t80.5 41.5 q-71 146 -244 146q-74 0 -129.5 -27t-87.5 -75t-47 -106t-15 -126q0 -111 52 -262h405v-19h-401q57 -185 57 -294q0 -77 -14 -134q11 -3 69 -17.5t79 -19t64 -13.5t73.5 -12t58.5 -3q118 0 176.5 63.5t60.5 176.5h13q5 -426 -242 -426q-56 0 -107.5 23t-85 52.5t-82 70.5 t-88.5 64q-59 -204 -231 -204q-73 0 -113.5 37.5t-40.5 93.5zM121 119q0 -50 32.5 -83.5t96.5 -33.5q82 0 127.5 60t42.5 163q-59 19 -121 19q-91 0 -134.5 -35.5t-43.5 -89.5z" />
<glyph unicode="&#xa5;" horiz-adv-x="1462" d="M59 1251v15h594v-15q-223 0 -98 -233l231 -426h7l122 213q140 244 140 334q0 112 -174 112v15h522v-15q-93 0 -156 -34t-114 -99q-40 -53 -201 -325l-64 -107h285v-18h-297l-55 -97v-149h352v-19h-352v-153q0 -50 2.5 -80t14 -63.5t33 -51t60 -29.5t95.5 -12v-14h-590v14 q56 0 94.5 12t60 30t33 51t14.5 63.5t3 79.5v153h-345v19h345v108l-80 138h-265v18h254l-174 305q-28 49 -48.5 82t-50 70t-57 58t-64.5 35.5t-77 14.5z" />
<glyph unicode="&#xa6;" horiz-adv-x="317" d="M147 -344v819h21v-819h-21zM147 700v717h21v-717h-21z" />
<glyph unicode="&#xa7;" horiz-adv-x="933" d="M111 70q0 45 30.5 75.5t73.5 30.5q45 0 76 -31t31 -75q0 -38 -22.5 -67t-57.5 -38q63 -100 202 -100q103 0 159 51.5t56 122.5q0 51 -30 90.5t-78 66t-106 50.5t-116 50.5t-106 57.5t-78 79.5t-30 109.5q0 82 54 138.5t167 111.5q-83 42 -129.5 96.5t-46.5 138.5 q0 115 87.5 188.5t237.5 73.5q140 0 225 -62.5t85 -146.5q0 -48 -30 -78t-73 -30q-44 0 -74 30.5t-30 73.5q0 41 24.5 71t61.5 36q-56 94 -180 94q-94 0 -149.5 -50.5t-55.5 -121.5q0 -51 29.5 -90.5t77 -66.5t105 -51.5t115 -51t105 -58t77 -80t29.5 -110.5 q0 -81 -52 -136.5t-165 -111.5q86 -42 133.5 -95.5t47.5 -137.5q0 -116 -88 -189t-244 -73q-150 0 -249 65t-99 150zM242 627q0 -38 16 -69.5t39.5 -53t63 -43t72.5 -35t83 -34t80 -34.5q47 28 75.5 64t28.5 94q0 38 -16 69.5t-39 52.5t-62 43t-72 35t-82 33.5t-79 34.5 q-108 -57 -108 -157z" />
<glyph unicode="&#xa8;" horiz-adv-x="956" d="M184 1120q0 47 33 81t80 34t81 -33t34 -80q0 -49 -33.5 -82.5t-79.5 -33.5t-80.5 33.5t-34.5 80.5zM535 1120q0 48 32.5 81.5t79.5 33.5t81 -34t34 -81t-33.5 -80.5t-79.5 -33.5q-47 0 -80.5 33.5t-33.5 80.5z" />
<glyph unicode="&#xa9;" horiz-adv-x="1507" d="M96 633q0 178 88.5 329.5t240 239.5t329.5 88q133 0 255 -52t210 -140t140 -210t52 -255q0 -178 -88 -329.5t-239.5 -240t-329.5 -88.5t-329.5 88.5t-240 240t-88.5 329.5zM119 633q0 -129 50.5 -247t135.5 -203.5t202.5 -136t246.5 -50.5q130 0 248 50.5t203 136 t135.5 203.5t50.5 247q0 130 -50.5 248t-135.5 203t-203 135.5t-248 50.5q-129 0 -246.5 -50.5t-202.5 -135.5t-135.5 -203t-50.5 -248zM377 631q0 166 114 267t297 101q35 0 93 -5t86 -5.5t84 8.5l20 -235h-6q-51 120 -115 174.5t-153 54.5q-86 0 -143 -52.5t-80 -130 t-23 -175.5q0 -70 13 -131.5t40.5 -114t76 -83t112.5 -30.5q182 0 286 248l8 -2l-40 -219q-129 -35 -250 -35q-198 0 -309 101.5t-111 263.5z" />
<glyph unicode="&#xaa;" horiz-adv-x="1028" d="M125 436v17h772v-17h-772zM152 764q0 94 75.5 142t194.5 48q88 0 190 -28v166q0 93 -34 141.5t-119 48.5q-109 0 -164 -88q27 -7 45 -32.5t18 -53.5q0 -38 -25.5 -64t-62.5 -26q-39 0 -63.5 30t-24.5 68q0 72 79.5 125t201.5 53q57 0 108 -13.5t94.5 -41t69 -74.5 t25.5 -108v-379q0 -66 49 -66q57 0 119 105l8 -4q-60 -131 -180 -131q-56 0 -94.5 29t-47.5 83q-80 -119 -235 -119q-101 0 -164 52t-63 137zM305 768q0 -77 35.5 -119.5t97.5 -42.5q94 0 174 105v200q-85 25 -139 25q-78 0 -123 -40.5t-45 -127.5z" />
<glyph unicode="&#xab;" horiz-adv-x="1206" d="M53 457v4l592 409l6 -10l-448 -401l448 -402l-6 -10zM532 457v4l592 409l6 -10l-448 -401l448 -402l-6 -10z" />
<glyph unicode="&#xad;" horiz-adv-x="727" d="M102 457v35h523v-35h-523z" />
<glyph unicode="&#xae;" horiz-adv-x="843" d="M102 1014q0 132 94 225.5t226 93.5q133 0 226 -93.5t93 -225.5t-93 -226t-226 -94q-132 0 -226 94t-94 226zM119 1014q0 -126 89 -214.5t214 -88.5q126 0 214.5 88.5t88.5 214.5t-88.5 214.5t-214.5 88.5q-125 0 -214 -88.5t-89 -214.5zM262 856v6q29 0 37 8.5t8 36.5 v213q0 28 -8 36.5t-37 8.5v6h164q68 0 104.5 -21t36.5 -60q0 -75 -131 -80v-2q28 0 47 -3.5t29.5 -7.5t18 -15t10.5 -19t8.5 -27.5t9.5 -32.5q8 -25 17 -33t32 -8v-6h-104q-5 9 -19 55q-16 65 -26 78q-15 17 -49 17h-35v-99q0 -27 9 -36t36 -9v-6h-158zM375 1012h41 q39 0 59.5 22t20.5 56t-20.5 54.5t-61.5 20.5h-39v-153z" />
<glyph unicode="&#xaf;" horiz-adv-x="847" d="M150 1024v66h548v-66h-548z" />
<glyph unicode="&#xb0;" horiz-adv-x="741" d="M86 1057q0 62 26 112.5t67.5 81t90.5 46.5t99 16q52 0 101.5 -15.5t91.5 -46t67.5 -81t25.5 -113.5t-25.5 -113t-67.5 -80.5t-92 -46.5t-101 -16q-50 0 -99 16t-90.5 46.5t-67.5 81t-26 112.5zM229 1057q0 -244 140 -244q143 0 143 244q0 243 -143 243q-140 0 -140 -243z " />
<glyph unicode="&#xb1;" horiz-adv-x="1179" d="M135 0v20h912v-20h-912zM135 655v21h445v446h20v-446h444v-21h-444v-446h-20v446h-445z" />
<glyph unicode="&#xb2;" horiz-adv-x="731" d="M66 1290q0 72 79.5 134.5t210.5 62.5q120 0 201.5 -56t81.5 -149q0 -61 -37.5 -107t-98.5 -78t-126 -60t-134 -68.5t-108 -87.5q-28 -38 -39 -82q38 90 158 90q53 0 141.5 -31t134.5 -31q111 0 111 105q0 24 -6 51h10q12 -62 12 -106q0 -38 -7 -72t-22 -64t-43 -47.5 t-65 -17.5q-38 0 -73 18.5t-62.5 45.5t-54 54t-60 45.5t-69.5 18.5q-51 0 -79 -33.5t-28 -85.5q0 -33 8 -53h-12q-27 107 29 188q26 40 74.5 80.5t95 73.5t91 72t72 91t27.5 114q0 74 -38.5 122t-116.5 48q-63 0 -104 -30.5t-62 -74.5q35 -3 58.5 -28.5t23.5 -59.5 q0 -37 -25.5 -61.5t-62.5 -24.5q-38 0 -62 28t-24 66z" />
<glyph unicode="&#xb3;" horiz-adv-x="741" d="M63 842q0 37 24.5 64.5t59.5 27.5q37 0 63 -25.5t26 -62.5q0 -32 -20.5 -57t-51.5 -31q16 -31 53.5 -53.5t97.5 -22.5q96 0 144.5 58.5t48.5 148.5q0 97 -54 146.5t-149 49.5q-35 0 -64 -6t-30 -6q-10 0 -17.5 5t-7.5 14q0 7 7.5 13.5t17.5 6.5q2 0 30.5 -8t61.5 -8 q88 0 134 56.5t46 141.5q0 81 -40.5 131t-118.5 50q-54 0 -90.5 -22.5t-53.5 -55.5q30 -6 50 -30t20 -56q0 -35 -25.5 -60.5t-60.5 -25.5q-37 0 -61.5 25.5t-24.5 64.5q0 71 78.5 121.5t201.5 50.5q122 0 204.5 -52t82.5 -145q0 -91 -81 -143.5t-210 -52.5h-8v-4h8 q85 0 154 -19.5t115.5 -66.5t46.5 -115q0 -103 -93 -160t-225 -57q-127 0 -208 50t-81 120z" />
<glyph unicode="&#xb4;" horiz-adv-x="634" d="M127 969q38 52 92.5 131t86.5 122.5t52 61.5q33 31 68.5 31t58.5 -27q23 -24 19.5 -59.5t-35.5 -65.5q-21 -18 -66 -44.5t-133 -75.5t-139 -78z" />
<glyph unicode="&#xb5;" horiz-adv-x="1138" d="M135 -8v823l189 25v-607q0 -88 37.5 -135t109.5 -47q46 0 92.5 21.5t74 44t64.5 59.5v637l187 27v-690q0 -125 90 -125q18 0 35.5 5.5t27.5 11.5t31 19l4 -10q-90 -69 -198 -69q-174 0 -174 174q-174 -179 -332 -179q-78 0 -137 38.5t-84 117.5v-94q0 -54 19.5 -103 t47 -83.5t55 -65t47 -60.5t19.5 -57t-18 -46t-52 -19q-25 0 -45 10.5t-33.5 32t-23.5 43.5t-16 57t-10 60t-5 64t-1.5 58t-0.5 52v10z" />
<glyph unicode="&#xb6;" horiz-adv-x="995" d="M66 928q0 144 117.5 241t299.5 97h432v-17h-120v-1370h-19v1370h-262v-1370h-20v719q-201 0 -314.5 95t-113.5 235z" />
<glyph unicode="&#xb7;" horiz-adv-x="479" d="M119 473q0 51 35 85t86 34t85.5 -34t34.5 -85t-34.5 -87t-85.5 -36t-86 36t-35 87z" />
<glyph unicode="&#xb8;" horiz-adv-x="655" d="M72 -371l8 11q68 -46 156 -46q72 0 114.5 38.5t42.5 101.5q0 52 -32.5 86.5t-92.5 34.5q-41 0 -75 -17l-5 6l121 142l21 -2l-101 -117q46 12 103 12q95 0 154 -38t59 -109q0 -44 -22 -77.5t-59 -52t-79 -27.5t-88 -9q-130 0 -225 63z" />
<glyph unicode="&#xb9;" horiz-adv-x="475" d="M37 1382v9q182 16 291 82l6 -3v-657q0 -69 28 -94t101 -25v-8h-412v8q75 0 105 26.5t30 96.5v502q0 33 -12 48t-45 15h-92z" />
<glyph unicode="&#xba;" horiz-adv-x="1024" d="M135 436v17h754v-17h-754zM143 936q0 84 31.5 153.5t84 113.5t118 67.5t135.5 23.5t135.5 -23.5t118 -67.5t84 -113.5t31.5 -153.5t-31.5 -154t-84 -114.5t-118 -68.5t-135.5 -24t-135.5 24t-118 68.5t-84 114.5t-31.5 154zM324 936q0 -161 46 -253.5t142 -92.5 q97 0 142.5 92t45.5 254t-45.5 254t-142.5 92q-96 0 -142 -92.5t-46 -253.5z" />
<glyph unicode="&#xbb;" horiz-adv-x="1206" d="M74 57l450 402l-450 401l6 10l592 -409v-4l-592 -410zM553 57l448 402l-448 401l6 10l592 -409v-4l-592 -410z" />
<glyph unicode="&#xbc;" horiz-adv-x="1605" d="M88 1178v8q182 16 291 82l6 -2v-658q0 -69 28 -94t101 -25v-8h-412v8q75 0 105.5 27t30.5 96v502q0 33 -12.5 48.5t-45.5 15.5h-92zM334 -10l919 1292l15 -8l-920 -1294zM872 213l127 133q49 47 88 123.5t39 153.5q0 123 -96 174q117 3 198 -37t81 -109 q0 -49 -41.5 -95.5t-128 -112t-123.5 -101.5l-125 -125h373v141l139 134h6v-275q48 0 75.5 7t28.5 7q11 0 18 -6t7 -14q0 -7 -8 -12.5t-17 -5.5q-4 0 -14 3t-33 6t-57 3v-78q0 -69 28.5 -94t100.5 -25v-8h-412v8q76 0 107 26.5t31 96.5v76h-387z" />
<glyph unicode="&#xbd;" horiz-adv-x="1656" d="M80 1178v8q182 16 291 82l6 -2v-658q0 -69 28 -94t101 -25v-8h-412v8q75 0 105 26.5t30 96.5v502q0 33 -12 48.5t-45 15.5h-92zM326 -10l919 1292l15 -8l-920 -1294zM981 604q0 72 80 134.5t211 62.5q120 0 201 -56t81 -149q0 -61 -37.5 -107t-98.5 -78t-126 -60 t-133.5 -68.5t-107.5 -87.5q-29 -40 -37 -82q33 90 155 90q53 0 142 -31t135 -31q110 0 110 105q0 24 -6 51h11q12 -46 12 -107q0 -52 -12 -95t-44 -74t-81 -31q-38 0 -73 18.5t-62.5 45.5t-54 54t-60 45.5t-68.5 18.5q-52 0 -79 -33.5t-27 -85.5q0 -40 8 -53h-12 q-30 108 28 188q25 40 73.5 80t95 73.5t91 72t72 90.5t27.5 114q0 74 -39 122t-117 48q-113 0 -166 -104q35 -3 58.5 -28.5t23.5 -59.5q0 -36 -25 -61t-61 -25q-40 0 -64 27.5t-24 66.5z" />
<glyph unicode="&#xbe;" horiz-adv-x="1720" d="M90 637q0 38 24 65t60 27q37 0 62.5 -25.5t25.5 -62.5q0 -32 -21.5 -57t-52.5 -31q16 -31 54.5 -53.5t97.5 -22.5q97 0 146 58.5t49 148.5q0 97 -54 147t-149 50q-27 0 -47.5 -3.5t-31.5 -6.5t-15 -3q-10 0 -17.5 5t-7.5 14q0 7 7 13.5t18 6.5q2 0 30.5 -8t61.5 -8 q88 0 134 57t46 142q0 80 -41.5 130t-120.5 50q-97 0 -143 -78q31 -6 50 -30t19 -56q0 -36 -25 -61t-61 -25t-60 25.5t-24 64.5q0 71 79 121.5t202 50.5q122 0 204.5 -52t82.5 -145q0 -91 -81.5 -143.5t-211.5 -52.5h-6v-4h6q86 0 155.5 -19.5t115.5 -66.5t46 -115 q0 -103 -93 -160t-226 -57q-126 0 -206.5 50t-80.5 120zM449 -10l919 1292l14 -8l-919 -1294zM987 213l127 133q49 47 88 123.5t39 153.5q0 123 -96 174q117 3 197.5 -37t80.5 -109q0 -49 -41.5 -95.5t-128 -112t-123.5 -101.5l-124 -125h372v141l140 134h6v-275 q48 0 75.5 7t28.5 7q11 0 18 -6t7 -14q0 -7 -8 -12.5t-17 -5.5q-4 0 -14 3t-33 6t-57 3v-78q0 -69 28.5 -94t100.5 -25v-8h-412v8q76 0 106.5 26.5t30.5 96.5v76h-387z" />
<glyph unicode="&#xbf;" horiz-adv-x="989" d="M63 -121q0 258 455 361l6 206h13l8 -215q-275 -70 -275 -352q0 -94 26 -167t88 -120t155 -47q169 0 249 140q-45 8 -74.5 43t-29.5 82q0 54 36 91.5t87 37.5t87 -37.5t36 -96.5q0 -108 -124 -191t-298 -83q-121 0 -221.5 41.5t-162 122t-61.5 184.5zM410 715 q0 51 33.5 86t84.5 35t86 -35t35 -86t-35 -85t-86 -34t-84.5 34t-33.5 85z" />
<glyph unicode="&#xc0;" d="M-68 0v14q39 0 73 7.5t62 24.5t51 34.5t44 46.5t36 52t31.5 59t26.5 59.5t25.5 62.5t23.5 58l359 856h14l430 -983q22 -50 40 -84.5t44.5 -74t54 -63t64.5 -39.5t80 -16v-14h-625v14q72 0 113 26.5t48 83t-32 144.5l-72 168h-485l-21 -49q-16 -42 -27 -74.5t-20.5 -73.5 t-10 -71t8.5 -60.5t29.5 -50t58 -31.5t90.5 -12v-14h-514zM346 457h467l-235 555zM467.5 1638.5q-3.5 35.5 19.5 59.5q23 27 58.5 27t68.5 -31q20 -18 51.5 -61t87.5 -125t91 -130l-4 -4q-51 30 -137.5 78.5t-132 75.5t-66.5 45q-33 30 -36.5 65.5z" />
<glyph unicode="&#xc1;" d="M-68 0v14q39 0 73 7.5t62 24.5t51 34.5t44 46.5t36 52t31.5 59t26.5 59.5t25.5 62.5t23.5 58l359 856h14l430 -983q22 -50 40 -84.5t44.5 -74t54 -63t64.5 -39.5t80 -16v-14h-625v14q72 0 113 26.5t48 83t-32 144.5l-72 168h-485l-21 -49q-16 -42 -27 -74.5t-20.5 -73.5 t-10 -71t8.5 -60.5t29.5 -50t58 -31.5t90.5 -12v-14h-514zM346 457h467l-235 555zM510 1378q36 50 91 130.5t86.5 124t51.5 61.5q33 31 69 31t60 -27q23 -24 19.5 -59.5t-37.5 -65.5q-20 -17 -65.5 -44.5t-132 -76t-138.5 -78.5z" />
<glyph unicode="&#xc2;" d="M-68 0v14q39 0 73 7.5t62 24.5t51 34.5t44 46.5t36 52t31.5 59t26.5 59.5t25.5 62.5t23.5 58l359 856h14l430 -983q22 -50 40 -84.5t44.5 -74t54 -63t64.5 -39.5t80 -16v-14h-625v14q72 0 113 26.5t48 83t-32 144.5l-72 168h-485l-21 -49q-16 -42 -27 -74.5t-20.5 -73.5 t-10 -71t8.5 -60.5t29.5 -50t58 -31.5t90.5 -12v-14h-514zM346 457h467l-235 555zM375 1372l225 283q29 37 68 37t65 -37l228 -283l-5 -4l-288 160l-289 -160z" />
<glyph unicode="&#xc3;" d="M-68 0v14q39 0 73 7.5t62 24.5t51 34.5t44 46.5t36 52t31.5 59t26.5 59.5t25.5 62.5t23.5 58l359 856h14l430 -983q22 -50 40 -84.5t44.5 -74t54 -63t64.5 -39.5t80 -16v-14h-625v14q72 0 113 26.5t48 83t-32 144.5l-72 168h-485l-21 -49q-16 -42 -27 -74.5t-20.5 -73.5 t-10 -71t8.5 -60.5t29.5 -50t58 -31.5t90.5 -12v-14h-514zM346 457h467l-235 555zM362 1409q4 41 8.5 72.5t16 70.5t28 65t44 44t63.5 18q53 0 162 -58t164 -58q30 0 50.5 10.5t31.5 31.5t15.5 39t8.5 46h11q-22 -271 -162 -271q-35 0 -79.5 18.5t-80.5 40t-82 40t-82 18.5 q-30 0 -50.5 -10.5t-31.5 -31t-15.5 -39t-8.5 -46.5h-11z" />
<glyph unicode="&#xc4;" d="M-68 0v14q39 0 73 7.5t62 24.5t51 34.5t44 46.5t36 52t31.5 59t26.5 59.5t25.5 62.5t23.5 58l359 856h14l430 -983q22 -50 40 -84.5t44.5 -74t54 -63t64.5 -39.5t80 -16v-14h-625v14q72 0 113 26.5t48 83t-32 144.5l-72 168h-485l-21 -49q-16 -42 -27 -74.5t-20.5 -73.5 t-10 -71t8.5 -60.5t29.5 -50t58 -31.5t90.5 -12v-14h-514zM346 457h467l-235 555zM373 1530q0 48 32.5 81.5t79.5 33.5t81 -33t34 -80q0 -49 -33.5 -83t-79.5 -34t-80 34t-34 81zM723 1530q0 47 33 81t80 34t80.5 -34t33.5 -81t-33 -81t-79 -34q-47 0 -81 34t-34 81z" />
<glyph unicode="&#xc5;" d="M-68 0v14q39 0 73 7.5t62 24.5t51 34.5t44 46.5t36 52t31.5 59t26.5 59.5t25.5 62.5t23.5 58l359 856h14l430 -983q22 -50 40 -84.5t44.5 -74t54 -63t64.5 -39.5t80 -16v-14h-625v14q72 0 113 26.5t48 83t-32 144.5l-72 168h-485l-21 -49q-16 -42 -27 -74.5t-20.5 -73.5 t-10 -71t8.5 -60.5t29.5 -50t58 -31.5t90.5 -12v-14h-514zM346 457h467l-235 555zM449 1552q0 87 61.5 142t153.5 55t154.5 -55t62.5 -142q0 -85 -62.5 -138.5t-154.5 -53.5t-153.5 53.5t-61.5 138.5zM575 1552q0 -184 89 -184q88 0 88 184q0 36 -3 64t-11 58.5t-27 47.5 t-47 17q-89 0 -89 -187z" />
<glyph unicode="&#xc6;" horiz-adv-x="2011" d="M-80 0v14q44 0 87.5 12.5t78 30t71.5 49.5t63 58.5t60 70t53.5 71t50.5 73.5q5 8 8 12.5t7.5 11t8.5 11.5l550 796q-41 41 -155 41v15h1050l25 -377l-10 -2q-17 76 -39 129.5t-60 100t-92.5 74t-135 43t-189.5 15.5h-150v-610h41q203 0 287.5 56.5t109.5 211.5h13v-551 h-13q-17 104 -59 161t-121 81.5t-217 24.5h-41v-607h172q94 0 168 13t126 40.5t88.5 59.5t62.5 80.5t41.5 91.5t31.5 105l13 -3l-39 -403h-1063v14q66 0 104.5 9t58.5 34t25.5 55.5t5.5 86.5v252h-538l-35 -54q-52 -76 -82.5 -138.5t-39 -120.5t30.5 -91t126 -33v-14h-539z M471 469h526v598q0 96 -26 129z" />
<glyph unicode="&#xc7;" horiz-adv-x="1370" d="M92 629q0 192 89.5 343t249 234.5t362.5 83.5q50 0 116 -6t112.5 -11t105 -2.5t108.5 15.5l35 -401h-13q-83 202 -193 296.5t-273 94.5q-98 0 -177.5 -34.5t-134 -93.5t-91 -142t-53 -177t-16.5 -200q0 -103 15.5 -195t50 -174t86.5 -141.5t130 -94t175 -34.5 q331 0 510 409h10l-67 -362q-213 -65 -475 -62l-92 -108q46 12 102 12q94 0 152.5 -38t58.5 -109q0 -58 -39 -97t-92 -54t-115 -15q-133 0 -225 63l6 11q72 -46 158 -46q71 0 114 38.5t43 101.5q0 52 -33 86.5t-92 34.5q-43 0 -77 -17l-5 6l115 133q-192 11 -338.5 98 t-224.5 231t-78 323z" />
<glyph unicode="&#xc8;" horiz-adv-x="1271" d="M63 0v14q66 0 104.5 9t59 33.5t26 55.5t5.5 87v868q0 56 -5.5 86.5t-26 55t-59 33.5t-104.5 9v15h1051l25 -377l-11 -2q-17 76 -39 129.5t-60 100t-92.5 74t-135 43t-189.5 15.5h-149v-610h41q203 0 287.5 56.5t109.5 211.5h12v-551h-12q-17 104 -59 161t-121 81.5 t-217 24.5h-41v-607h172q94 0 168 13t126 40.5t88.5 59.5t62.5 80.5t41.5 91.5t31.5 105l12 -3l-39 -403h-1063zM435.5 1638.5q-3.5 35.5 19.5 59.5q24 27 60 27t69 -31q20 -18 51.5 -61.5t86.5 -124t91 -130.5l-4 -4q-52 30 -138.5 78.5t-132 76t-65.5 44.5 q-34 30 -37.5 65.5z" />
<glyph unicode="&#xc9;" horiz-adv-x="1271" d="M63 0v14q66 0 104.5 9t59 33.5t26 55.5t5.5 87v868q0 56 -5.5 86.5t-26 55t-59 33.5t-104.5 9v15h1051l25 -377l-11 -2q-17 76 -39 129.5t-60 100t-92.5 74t-135 43t-189.5 15.5h-149v-610h41q203 0 287.5 56.5t109.5 211.5h12v-551h-12q-17 104 -59 161t-121 81.5 t-217 24.5h-41v-607h172q94 0 168 13t126 40.5t88.5 59.5t62.5 80.5t41.5 91.5t31.5 105l12 -3l-39 -403h-1063zM528 1378q35 48 91 130t87.5 125t51.5 61q33 31 69 31t60 -27q23 -24 19 -59.5t-38 -65.5q-20 -17 -65.5 -44.5t-132 -76t-138.5 -78.5z" />
<glyph unicode="&#xca;" horiz-adv-x="1271" d="M63 0v14q66 0 104.5 9t59 33.5t26 55.5t5.5 87v868q0 56 -5.5 86.5t-26 55t-59 33.5t-104.5 9v15h1051l25 -377l-11 -2q-17 76 -39 129.5t-60 100t-92.5 74t-135 43t-189.5 15.5h-149v-610h41q203 0 287.5 56.5t109.5 211.5h12v-551h-12q-17 104 -59 161t-121 81.5 t-217 24.5h-41v-607h172q94 0 168 13t126 40.5t88.5 59.5t62.5 80.5t41.5 91.5t31.5 105l12 -3l-39 -403h-1063zM358 1372l228 283q29 37 65 37q39 0 68 -37l227 -283l-4 -4l-291 160l-289 -160z" />
<glyph unicode="&#xcb;" horiz-adv-x="1271" d="M63 0v14q66 0 104.5 9t59 33.5t26 55.5t5.5 87v868q0 56 -5.5 86.5t-26 55t-59 33.5t-104.5 9v15h1051l25 -377l-11 -2q-17 76 -39 129.5t-60 100t-92.5 74t-135 43t-189.5 15.5h-149v-610h41q203 0 287.5 56.5t109.5 211.5h12v-551h-12q-17 104 -59 161t-121 81.5 t-217 24.5h-41v-607h172q94 0 168 13t126 40.5t88.5 59.5t62.5 80.5t41.5 91.5t31.5 105l12 -3l-39 -403h-1063zM379 1530q0 47 33 81t80 34q46 0 80 -33t34 -80q0 -49 -33.5 -83t-78.5 -34q-47 0 -81 34t-34 81zM729 1530q0 47 33 81t80 34q46 0 80 -34t34 -81t-34 -81 t-80 -34q-47 0 -80 34t-33 81z" />
<glyph unicode="&#xcc;" horiz-adv-x="720" d="M63 0v14q66 0 104.5 9t59 33.5t26 55.5t5.5 87v868q0 56 -5.5 86.5t-26 55t-59 33.5t-104.5 9v15h594v-15q-66 0 -104.5 -9t-58.5 -33.5t-25.5 -55t-5.5 -86.5v-868q0 -56 5.5 -86.5t25.5 -55.5t58.5 -34t104.5 -9v-14h-594zM157 1638.5q-4 35.5 19 59.5q24 27 59 27 t68 -31q20 -18 52 -61.5t87 -123t93 -131.5l-5 -4q-43 25 -109.5 62.5t-102 57.5t-71.5 42.5t-52 36.5q-34 30 -38 65.5z" />
<glyph unicode="&#xcd;" horiz-adv-x="720" d="M63 0v14q66 0 104.5 9t59 33.5t26 55.5t5.5 87v868q0 56 -5.5 86.5t-26 55t-59 33.5t-104.5 9v15h594v-15q-66 0 -104.5 -9t-58.5 -33.5t-25.5 -55t-5.5 -86.5v-868q0 -56 5.5 -86.5t25.5 -55.5t58.5 -34t104.5 -9v-14h-594zM182 1378q35 48 91 130t87.5 125t51.5 61 q33 31 69 31t60 -27q23 -24 19 -59.5t-38 -65.5q-20 -17 -65.5 -44.5t-132 -76t-138.5 -78.5z" />
<glyph unicode="&#xce;" horiz-adv-x="720" d="M63 0v14q66 0 104.5 9t59 33.5t26 55.5t5.5 87v868q0 56 -5.5 86.5t-26 55t-59 33.5t-104.5 9v15h594v-15q-66 0 -104.5 -9t-58.5 -33.5t-25.5 -55t-5.5 -86.5v-868q0 -56 5.5 -86.5t25.5 -55.5t58.5 -34t104.5 -9v-14h-594zM66 1372l227 283q29 37 67 37q37 0 66 -37 l227 -283l-4 -4l-289 160l-290 -160z" />
<glyph unicode="&#xcf;" horiz-adv-x="720" d="M63 0v14q66 0 104.5 9t59 33.5t26 55.5t5.5 87v868q0 56 -5.5 86.5t-26 55t-59 33.5t-104.5 9v15h594v-15q-66 0 -104.5 -9t-58.5 -33.5t-25.5 -55t-5.5 -86.5v-868q0 -56 5.5 -86.5t25.5 -55.5t58.5 -34t104.5 -9v-14h-594zM72 1530q0 48 32.5 81.5t79.5 33.5t81 -33 t34 -80q0 -49 -33.5 -83t-79.5 -34t-80 34t-34 81zM422 1530q0 47 33 81t80 34t80.5 -34t33.5 -81t-33.5 -81t-80.5 -34q-46 0 -79.5 34t-33.5 81z" />
<glyph unicode="&#xd0;" horiz-adv-x="1503" d="M63 0v14q66 0 104.5 9t59 33.5t26 55.5t5.5 87v428h-158v18h158v422q0 56 -5.5 86.5t-26 55t-59 33.5t-104.5 9v15h627q328 0 522.5 -172.5t194.5 -460.5t-194 -460.5t-523 -172.5h-627zM465 16h213q129 0 227.5 48t158 133.5t89 195t29.5 240.5t-29.5 240.5t-89 194.5 t-158 133t-227.5 48h-213v-604h375v-18h-375v-611z" />
<glyph unicode="&#xd1;" horiz-adv-x="1484" d="M43 0v14q178 0 215 125t37 627v182q0 82 -9.5 134.5t-36.5 93t-75.5 58t-124.5 17.5v15h381l764 -938v172q0 502 -37 626.5t-215 124.5v15h522v-15q-178 0 -214 -123.5t-36 -627.5v-508l-12 -2l-887 1083v-307q0 -504 36 -628t214 -124v-14h-522zM469 1409q5 51 12.5 91 t24.5 84.5t48 69.5t75 25q53 0 161.5 -58t163.5 -58q56 0 77.5 34.5t29.5 92.5h10q-22 -271 -160 -271q-53 0 -161.5 58.5t-163.5 58.5q-56 0 -77.5 -34t-29.5 -93h-10z" />
<glyph unicode="&#xd2;" horiz-adv-x="1523" d="M92 633q0 137 50 258t137.5 209t212.5 139t270 51t270 -51t212.5 -139t137.5 -209t50 -258t-50 -258.5t-137.5 -209.5t-212.5 -139t-270 -51q-144 0 -269 51t-213 139t-138 209.5t-50 258.5zM317 633q0 -102 14 -192.5t47 -173.5t83 -142.5t127 -95t174 -35.5t174 35.5 t127 95t82.5 142.5t46.5 173.5t14 192.5q0 103 -13.5 193t-46 173.5t-82 142.5t-127 94.5t-175.5 35.5t-175 -35.5t-127 -95t-83 -143t-46.5 -173.5t-13.5 -192zM548 1658.5q-4 35.5 19 59.5q24 27 60 27t69 -31q20 -18 51 -60.5t88 -125t91 -129.5l-4 -4q-54 31 -139 78.5 t-131 75t-66 44.5q-34 30 -38 65.5z" />
<glyph unicode="&#xd3;" horiz-adv-x="1523" d="M92 633q0 137 50 258t137.5 209t212.5 139t270 51t270 -51t212.5 -139t137.5 -209t50 -258t-50 -258.5t-137.5 -209.5t-212.5 -139t-270 -51q-144 0 -269 51t-213 139t-138 209.5t-50 258.5zM317 633q0 -102 14 -192.5t47 -173.5t83 -142.5t127 -95t174 -35.5t174 35.5 t127 95t82.5 142.5t46.5 173.5t14 192.5q0 103 -13.5 193t-46 173.5t-82 142.5t-127 94.5t-175.5 35.5t-175 -35.5t-127 -95t-83 -143t-46.5 -173.5t-13.5 -192zM584 1399q38 52 92.5 131t86.5 122.5t52 61.5q33 31 68.5 31t58.5 -27q23 -24 19.5 -59.5t-35.5 -65.5 q-21 -18 -66 -44.5t-133 -75.5t-139 -78z" />
<glyph unicode="&#xd4;" horiz-adv-x="1523" d="M92 633q0 137 50 258t137.5 209t212.5 139t270 51t270 -51t212.5 -139t137.5 -209t50 -258t-50 -258.5t-137.5 -209.5t-212.5 -139t-270 -51q-144 0 -269 51t-213 139t-138 209.5t-50 258.5zM317 633q0 -102 14 -192.5t47 -173.5t83 -142.5t127 -95t174 -35.5t174 35.5 t127 95t82.5 142.5t46.5 173.5t14 192.5q0 103 -13.5 193t-46 173.5t-82 142.5t-127 94.5t-175.5 35.5t-175 -35.5t-127 -95t-83 -143t-46.5 -173.5t-13.5 -192zM467 1393l227 282q29 37 66 37q38 0 67 -37l228 -282l-4 -4l-291 159l-289 -159z" />
<glyph unicode="&#xd5;" horiz-adv-x="1523" d="M92 633q0 137 50 258t137.5 209t212.5 139t270 51t270 -51t212.5 -139t137.5 -209t50 -258t-50 -258.5t-137.5 -209.5t-212.5 -139t-270 -51q-144 0 -269 51t-213 139t-138 209.5t-50 258.5zM317 633q0 -102 14 -192.5t47 -173.5t83 -142.5t127 -95t174 -35.5t174 35.5 t127 95t82.5 142.5t46.5 173.5t14 192.5q0 103 -13.5 193t-46 173.5t-82 142.5t-127 94.5t-175.5 35.5t-175 -35.5t-127 -95t-83 -143t-46.5 -173.5t-13.5 -192zM446 1430q4 41 8.5 72.5t16 70.5t28 65t44 44t63.5 18q53 0 162 -58.5t164 -58.5q30 0 50.5 10.5t31.5 31.5 t15.5 39t8.5 46h11q-26 -270 -162 -270q-44 0 -102.5 29t-118 58t-105.5 29q-30 0 -50.5 -10.5t-31 -30.5t-15 -39t-7.5 -46h-11z" />
<glyph unicode="&#xd6;" horiz-adv-x="1523" d="M92 633q0 137 50 258t137.5 209t212.5 139t270 51t270 -51t212.5 -139t137.5 -209t50 -258t-50 -258.5t-137.5 -209.5t-212.5 -139t-270 -51q-144 0 -269 51t-213 139t-138 209.5t-50 258.5zM317 633q0 -102 14 -192.5t47 -173.5t83 -142.5t127 -95t174 -35.5t174 35.5 t127 95t82.5 142.5t46.5 173.5t14 192.5q0 103 -13.5 193t-46 173.5t-82 142.5t-127 94.5t-175.5 35.5t-175 -35.5t-127 -95t-83 -143t-46.5 -173.5t-13.5 -192zM473 1550q0 47 33 81t80 34t80.5 -33t33.5 -80q0 -49 -33 -82.5t-79 -33.5q-47 0 -81 33.5t-34 80.5zM823 1550 q0 47 33 81t80 34t81 -34t34 -81t-34 -80.5t-81 -33.5q-46 0 -79.5 33.5t-33.5 80.5z" />
<glyph unicode="&#xd7;" horiz-adv-x="952" d="M100 137l363 363l-363 362l15 15l362 -363l363 363l12 -15l-360 -362l360 -363l-12 -14l-363 362l-362 -362z" />
<glyph unicode="&#xd8;" horiz-adv-x="1525" d="M94 633q0 137 50 258t137.5 209t212.5 139t270 51q246 0 424 -141l137 162l14 -15l-135 -159q108 -90 169 -221.5t61 -282.5q0 -137 -50 -258.5t-138 -209.5t-213 -139t-269 -51q-246 0 -426 140l-137 -160l-15 12l138 160q-109 92 -169.5 223t-60.5 283zM319 633 q0 -249 84 -410l713 838q-116 211 -352 211q-98 0 -175.5 -35.5t-127.5 -95t-82.5 -143t-46 -173.5t-13.5 -192zM412 203q117 -209 352 -209q97 0 174 35.5t127 95t82.5 142.5t46.5 173.5t14 192.5q0 245 -84 409z" />
<glyph unicode="&#xd9;" horiz-adv-x="1419" d="M39 1251v15h594v-15q-66 0 -105 -10t-58.5 -36t-25.5 -58t-6 -88v-660q0 -397 330 -397q177 0 278 109.5t101 302.5v123q0 103 -0.5 170t-3 139.5t-6 116t-10.5 90.5t-16 72t-24 51t-32 37.5t-41.5 21.5t-52 13t-64.5 3v15h518v-15q-175 0 -211.5 -120t-36.5 -594v-123 q0 -213 -118 -326t-334 -113q-96 0 -178.5 23t-152.5 73t-110.5 139.5t-40.5 211.5v637q0 56 -5.5 87.5t-25.5 58t-59 36.5t-104 10zM513 1638.5q-4 35.5 19 59.5q24 27 60.5 27t69.5 -31q20 -18 51.5 -61.5t86.5 -124t91 -130.5l-4 -4q-52 30 -138.5 78.5t-132 76 t-65.5 44.5q-34 30 -38 65.5z" />
<glyph unicode="&#xda;" horiz-adv-x="1419" d="M39 1251v15h594v-15q-66 0 -105 -10t-58.5 -36t-25.5 -58t-6 -88v-660q0 -397 330 -397q177 0 278 109.5t101 302.5v123q0 103 -0.5 170t-3 139.5t-6 116t-10.5 90.5t-16 72t-24 51t-32 37.5t-41.5 21.5t-52 13t-64.5 3v15h518v-15q-175 0 -211.5 -120t-36.5 -594v-123 q0 -213 -118 -326t-334 -113q-96 0 -178.5 23t-152.5 73t-110.5 139.5t-40.5 211.5v637q0 56 -5.5 87.5t-25.5 58t-59 36.5t-104 10zM612 1378q31 44 90.5 129.5t90.5 126.5t51 60q33 31 68 31t59 -27q23 -24 19 -59.5t-38 -65.5q-20 -17 -65.5 -44.5t-132 -76t-138.5 -78.5 z" />
<glyph unicode="&#xdb;" horiz-adv-x="1419" d="M39 1251v15h594v-15q-66 0 -105 -10t-58.5 -36t-25.5 -58t-6 -88v-660q0 -397 330 -397q177 0 278 109.5t101 302.5v123q0 103 -0.5 170t-3 139.5t-6 116t-10.5 90.5t-16 72t-24 51t-32 37.5t-41.5 21.5t-52 13t-64.5 3v15h518v-15q-175 0 -211.5 -120t-36.5 -594v-123 q0 -213 -118 -326t-334 -113q-96 0 -178.5 23t-152.5 73t-110.5 139.5t-40.5 211.5v637q0 56 -5.5 87.5t-25.5 58t-59 36.5t-104 10zM451 1372l227 283q26 37 65 37t68 -37l225 -283l-4 -4l-289 160l-288 -160z" />
<glyph unicode="&#xdc;" horiz-adv-x="1419" d="M39 1251v15h594v-15q-66 0 -105 -10t-58.5 -36t-25.5 -58t-6 -88v-660q0 -397 330 -397q177 0 278 109.5t101 302.5v123q0 103 -0.5 170t-3 139.5t-6 116t-10.5 90.5t-16 72t-24 51t-32 37.5t-41.5 21.5t-52 13t-64.5 3v15h518v-15q-175 0 -211.5 -120t-36.5 -594v-123 q0 -213 -118 -326t-334 -113q-96 0 -178.5 23t-152.5 73t-110.5 139.5t-40.5 211.5v637q0 56 -5.5 87.5t-25.5 58t-59 36.5t-104 10zM459 1530q0 48 32.5 81.5t79.5 33.5t81 -33t34 -80q0 -49 -33.5 -83t-79.5 -34q-47 0 -80.5 34t-33.5 81zM809 1530q0 47 33 81t80 34 t80.5 -34t33.5 -81t-33.5 -81t-80.5 -34q-46 0 -79.5 34t-33.5 81z" />
<glyph unicode="&#xdd;" horiz-adv-x="1347" d="M-10 1251v15h618v-15q-233 0 -96 -231l254 -428h6l86 145q107 179 149 266t42 138q0 110 -175 110v15h539v-15q-95 0 -161 -32t-119 -95q-58 -68 -261 -399l-86 -141v-334q0 -50 2.5 -80t14 -63.5t33 -51t60 -29.5t95.5 -12v-14h-616v14q57 0 95.5 12t60 29.5t33 51 t14 63.5t2.5 80v270l-283 471q-36 59 -65 99t-67.5 80.5t-82.5 60.5t-92 20zM563 1378q35 48 91 130t87.5 125t51.5 61q33 31 69 31t60 -27q23 -24 19 -59.5t-38 -65.5q-20 -17 -65.5 -44.5t-132 -76t-138.5 -78.5z" />
<glyph unicode="&#xde;" horiz-adv-x="1228" d="M63 0v14q66 0 104.5 9t59 33.5t26 55.5t5.5 87v868q0 56 -5.5 86.5t-26 55t-59 33.5t-104.5 9v15h594v-15q-66 0 -104.5 -9t-58.5 -33.5t-25.5 -55t-5.5 -86.5v-63h186q270 0 396 -96t126 -263q0 -166 -126 -262t-396 -96h-78v16h54q163 0 246 95.5t83 246.5t-83 247.5 t-246 96.5h-162v-790q0 -56 5.5 -86.5t25.5 -55.5t58.5 -34t104.5 -9v-14h-594z" />
<glyph unicode="&#xdf;" horiz-adv-x="1204" d="M35 807v20h176v158q0 177 107 271t270 94q83 0 152 -28.5t112.5 -71t76 -100.5t48.5 -110t24 -106q-8 -1 -41.5 -6t-50.5 -7.5t-50.5 -10.5t-52.5 -15.5t-44 -21.5t-38.5 -30t-23.5 -39.5t-10 -51.5q0 -46 25.5 -85.5t66 -68.5t89.5 -57t98.5 -58.5t90 -65t66 -84.5 t25.5 -110q0 -106 -81 -176t-257 -70q-133 0 -281 37l-14 256l12 2q4 -9 16.5 -39.5t20 -46.5t23 -45.5t29 -47t35.5 -39.5t45 -34.5t54 -21t66 -8.5q40 0 72 10.5t51 27.5t32 38.5t18 42.5t5 41q0 45 -25 83.5t-65 67.5t-88 57t-96 58t-88 63.5t-65 81.5t-25 105 q0 101 73.5 158.5t210.5 93.5q-19 169 -49 251q-62 168 -198 168q-93 0 -139 -74t-46 -192v-1071h-350v14q90 0 127 25t37 102v666h-176z" />
<glyph unicode="&#xe0;" horiz-adv-x="1015" d="M84 207q0 114 93 173.5t237 59.5q114 0 231 -37v203q0 110 -41.5 170t-142.5 60q-133 0 -197 -107q34 -11 56 -40.5t22 -65.5q0 -46 -32.5 -78.5t-78.5 -32.5q-49 0 -79.5 37.5t-30.5 85.5q0 87 98 151t248 64q56 0 107.5 -10t99.5 -32t83 -55.5t56 -83.5t21 -112v-457 q0 -75 59 -75q47 0 85 41.5t56 83.5l15 -7q-84 -161 -224 -161q-70 0 -117 37t-57 102q-110 -144 -289 -144q-126 0 -202 63t-76 167zM275.5 1228.5q-3.5 35.5 19.5 59.5q23 27 58.5 27t68.5 -31q20 -18 51.5 -60.5t87 -124t90.5 -130.5l-4 -4q-53 31 -138 78.5t-131 75 t-67 44.5q-32 30 -35.5 65.5zM279 213q0 -93 42.5 -145t116.5 -52q114 0 207 125v246q-102 29 -166 29q-93 0 -146.5 -50t-53.5 -153z" />
<glyph unicode="&#xe1;" horiz-adv-x="1015" d="M84 207q0 114 93 173.5t237 59.5q114 0 231 -37v203q0 110 -41.5 170t-142.5 60q-133 0 -197 -107q34 -11 56 -40.5t22 -65.5q0 -46 -32.5 -78.5t-78.5 -32.5q-49 0 -79.5 37.5t-30.5 85.5q0 87 98 151t248 64q56 0 107.5 -10t99.5 -32t83 -55.5t56 -83.5t21 -112v-457 q0 -75 59 -75q47 0 85 41.5t56 83.5l15 -7q-84 -161 -224 -161q-70 0 -117 37t-57 102q-110 -144 -289 -144q-126 0 -202 63t-76 167zM279 213q0 -93 42.5 -145t116.5 -52q114 0 207 125v246q-102 29 -166 29q-93 0 -146.5 -50t-53.5 -153zM324 969q35 49 90.5 130.5t87 124 t51.5 60.5q33 31 69 31t60 -27q23 -24 19.5 -59.5t-37.5 -65.5q-20 -17 -66 -44.5t-131 -75t-139 -78.5z" />
<glyph unicode="&#xe2;" horiz-adv-x="1015" d="M84 207q0 114 93 173.5t237 59.5q114 0 231 -37v203q0 110 -41.5 170t-142.5 60q-133 0 -197 -107q34 -11 56 -40.5t22 -65.5q0 -46 -32.5 -78.5t-78.5 -32.5q-49 0 -79.5 37.5t-30.5 85.5q0 87 98 151t248 64q56 0 107.5 -10t99.5 -32t83 -55.5t56 -83.5t21 -112v-457 q0 -75 59 -75q47 0 85 41.5t56 83.5l15 -7q-84 -161 -224 -161q-70 0 -117 37t-57 102q-110 -144 -289 -144q-126 0 -202 63t-76 167zM190 963l228 282q26 37 65 37t68 -37l225 -282l-4 -5l-289 160l-288 -160zM279 213q0 -93 42.5 -145t116.5 -52q114 0 207 125v246 q-102 29 -166 29q-93 0 -146.5 -50t-53.5 -153z" />
<glyph unicode="&#xe3;" horiz-adv-x="1015" d="M84 207q0 114 93 173.5t237 59.5q114 0 231 -37v203q0 110 -41.5 170t-142.5 60q-133 0 -197 -107q34 -11 56 -40.5t22 -65.5q0 -46 -32.5 -78.5t-78.5 -32.5q-49 0 -79.5 37.5t-30.5 85.5q0 87 98 151t248 64q56 0 107.5 -10t99.5 -32t83 -55.5t56 -83.5t21 -112v-457 q0 -75 59 -75q47 0 85 41.5t56 83.5l15 -7q-84 -161 -224 -161q-70 0 -117 37t-57 102q-110 -144 -289 -144q-126 0 -202 63t-76 167zM182 999q5 52 12.5 91.5t24 84.5t48 70t75.5 25q53 0 162 -58.5t164 -58.5q30 0 50.5 10.5t31.5 31.5t15.5 39t8.5 46h10 q-22 -270 -161 -270q-43 0 -101.5 29t-117.5 58t-105 29q-30 0 -50.5 -10.5t-31.5 -31t-15.5 -39t-8.5 -46.5h-11zM279 213q0 -93 42.5 -145t116.5 -52q114 0 207 125v246q-102 29 -166 29q-93 0 -146.5 -50t-53.5 -153z" />
<glyph unicode="&#xe4;" horiz-adv-x="1015" d="M84 207q0 114 93 173.5t237 59.5q114 0 231 -37v203q0 110 -41.5 170t-142.5 60q-133 0 -197 -107q34 -11 56 -40.5t22 -65.5q0 -46 -32.5 -78.5t-78.5 -32.5q-49 0 -79.5 37.5t-30.5 85.5q0 87 98 151t248 64q56 0 107.5 -10t99.5 -32t83 -55.5t56 -83.5t21 -112v-457 q0 -75 59 -75q47 0 85 41.5t56 83.5l15 -7q-84 -161 -224 -161q-70 0 -117 37t-57 102q-110 -144 -289 -144q-126 0 -202 63t-76 167zM195 1120q0 48 32.5 81.5t79.5 33.5t81 -33t34 -80q0 -49 -33.5 -82.5t-79.5 -33.5t-80 33.5t-34 80.5zM279 213q0 -93 42.5 -145 t116.5 -52q114 0 207 125v246q-102 29 -166 29q-93 0 -146.5 -50t-53.5 -153zM545 1120q0 48 32.5 81.5t79.5 33.5t81 -34t34 -81t-33.5 -80.5t-79.5 -33.5q-47 0 -80.5 33.5t-33.5 80.5z" />
<glyph unicode="&#xe5;" horiz-adv-x="1015" d="M84 207q0 114 93 173.5t237 59.5q114 0 231 -37v203q0 110 -41.5 170t-142.5 60q-133 0 -197 -107q34 -11 56 -40.5t22 -65.5q0 -46 -32.5 -78.5t-78.5 -32.5q-49 0 -79.5 37.5t-30.5 85.5q0 87 98 151t248 64q56 0 107.5 -10t99.5 -32t83 -55.5t56 -83.5t21 -112v-457 q0 -75 59 -75q47 0 85 41.5t56 83.5l15 -7q-84 -161 -224 -161q-70 0 -117 37t-57 102q-110 -144 -289 -144q-126 0 -202 63t-76 167zM258 1143q0 86 62.5 141t154.5 55t153.5 -54.5t61.5 -141.5q0 -85 -61.5 -139t-153.5 -54t-154.5 54t-62.5 139zM279 213q0 -93 42.5 -145 t116.5 -52q114 0 207 125v246q-102 29 -166 29q-93 0 -146.5 -50t-53.5 -153zM385 1143q0 -185 90 -185q86 0 86 185q0 186 -86 186q-90 0 -90 -186z" />
<glyph unicode="&#xe6;" horiz-adv-x="1521" d="M82 207q0 114 93 173.5t237 59.5q116 0 233 -37v203q0 110 -42.5 170t-143.5 60q-133 0 -197 -107q34 -11 56 -40.5t22 -65.5q0 -46 -32 -78.5t-79 -32.5q-49 0 -79.5 37.5t-30.5 85.5q0 87 98 151t248 64q97 0 175 -32.5t120 -98.5q56 62 133.5 96.5t165.5 34.5 q76 0 143.5 -24.5t120.5 -70.5t84.5 -120.5t32.5 -167.5h-606q-6 -209 67 -329t215 -120q108 0 187.5 61.5t121.5 145.5l13 -6q-126 -242 -387 -242q-122 0 -212.5 51t-138.5 142q-128 -193 -338 -193q-127 0 -203.5 63t-76.5 167zM279 215q0 -94 44.5 -145.5t120.5 -51.5 q79 0 141.5 50.5t104.5 119.5q-45 88 -45 199q-102 29 -168 29q-93 0 -145.5 -49.5t-52.5 -151.5zM836 483h411q-1 43 -5 84t-17 92t-33 88.5t-55.5 63t-81.5 25.5q-65 0 -113.5 -51t-74 -128.5t-31.5 -173.5z" />
<glyph unicode="&#xe7;" horiz-adv-x="931" d="M84 403q0 135 62 238.5t161 156t215 52.5q142 0 236 -76t94 -172q0 -54 -31.5 -90.5t-81.5 -36.5q-49 0 -80.5 33t-31.5 80q0 46 27.5 77.5t70.5 36.5q-55 134 -182 134q-84 0 -144 -59t-88 -152t-28 -209q0 -187 73 -293.5t205 -106.5q98 0 173.5 58t119.5 153l12 -8 q-56 -110 -152.5 -177.5t-238.5 -64.5l-94 -110q46 12 102 12q95 0 154 -38t59 -109q0 -58 -39 -97t-92 -54t-116 -15q-131 0 -226 63l8 11q68 -46 156 -46q72 0 115 38.5t43 101.5q0 52 -32.5 86.5t-92.5 34.5q-42 0 -76 -17l-4 6l115 136q-170 12 -270.5 130.5 t-100.5 292.5z" />
<glyph unicode="&#xe8;" horiz-adv-x="970" d="M84 420q0 191 121.5 310.5t300.5 119.5q77 0 145 -24.5t121.5 -70.5t84.5 -120.5t32 -167.5h-606q-6 -209 67 -329t217 -120q107 0 186 61.5t121 145.5l15 -6q-23 -44 -53 -82t-76 -76.5t-112 -61t-144 -22.5q-132 0 -229.5 63.5t-144 162.5t-46.5 217zM285 483h405 q-1 36 -3.5 69t-9.5 76t-20.5 77.5t-32.5 65.5t-50 48t-70 17q-64 0 -112.5 -50.5t-74.5 -129t-32 -173.5zM288 1228.5q-4 35.5 19 59.5q24 27 60 27t69 -31q20 -18 51 -60.5t88 -125t91 -129.5l-4 -4q-54 31 -139 78.5t-131 75t-66 44.5q-34 30 -38 65.5z" />
<glyph unicode="&#xe9;" horiz-adv-x="970" d="M84 420q0 191 121.5 310.5t300.5 119.5q77 0 145 -24.5t121.5 -70.5t84.5 -120.5t32 -167.5h-606q-6 -209 67 -329t217 -120q107 0 186 61.5t121 145.5l15 -6q-23 -44 -53 -82t-76 -76.5t-112 -61t-144 -22.5q-132 0 -229.5 63.5t-144 162.5t-46.5 217zM285 483h405 q-1 36 -3.5 69t-9.5 76t-20.5 77.5t-32.5 65.5t-50 48t-70 17q-64 0 -112.5 -50.5t-74.5 -129t-32 -173.5zM334 969q32 45 90.5 129.5t89.5 125.5t51 60q33 31 68 31t59 -27q23 -24 19.5 -59.5t-37.5 -65.5q-20 -17 -66 -44.5t-131 -75t-139 -78.5z" />
<glyph unicode="&#xea;" horiz-adv-x="970" d="M84 420q0 191 121.5 310.5t300.5 119.5q77 0 145 -24.5t121.5 -70.5t84.5 -120.5t32 -167.5h-606q-6 -209 67 -329t217 -120q107 0 186 61.5t121 145.5l15 -6q-23 -44 -53 -82t-76 -76.5t-112 -61t-144 -22.5q-132 0 -229.5 63.5t-144 162.5t-46.5 217zM207 963l225 282 q29 37 68 37t65 -37l228 -282l-5 -5l-288 160l-289 -160zM285 483h405q-1 36 -3.5 69t-9.5 76t-20.5 77.5t-32.5 65.5t-50 48t-70 17q-64 0 -112.5 -50.5t-74.5 -129t-32 -173.5z" />
<glyph unicode="&#xeb;" horiz-adv-x="970" d="M84 420q0 191 121.5 310.5t300.5 119.5q77 0 145 -24.5t121.5 -70.5t84.5 -120.5t32 -167.5h-606q-6 -209 67 -329t217 -120q107 0 186 61.5t121 145.5l15 -6q-23 -44 -53 -82t-76 -76.5t-112 -61t-144 -22.5q-132 0 -229.5 63.5t-144 162.5t-46.5 217zM213 1120 q0 47 33 81t80 34t80.5 -33t33.5 -80q0 -49 -33 -82.5t-79 -33.5t-80.5 33.5t-34.5 80.5zM285 483h405q-1 36 -3.5 69t-9.5 76t-20.5 77.5t-32.5 65.5t-50 48t-70 17q-64 0 -112.5 -50.5t-74.5 -129t-32 -173.5zM563 1120q0 47 33 81t80 34t81 -34t34 -81t-33.5 -80.5 t-79.5 -33.5q-47 0 -81 33.5t-34 80.5z" />
<glyph unicode="&#xec;" horiz-adv-x="573" d="M47 0v14q86 0 120 25.5t34 99.5v531q0 74 -34 99.5t-120 25.5v12l342 41v-709q0 -74 34 -99.5t120 -25.5v-14h-496zM64.5 1228.5q-3.5 35.5 19.5 59.5q24 27 60 27t69 -31q20 -18 51.5 -60.5t87 -124t90.5 -130.5l-4 -4q-54 31 -139 78.5t-131 75t-66 44.5 q-34 30 -37.5 65.5z" />
<glyph unicode="&#xed;" horiz-adv-x="573" d="M47 0v14q86 0 120 25.5t34 99.5v531q0 74 -34 99.5t-120 25.5v12l342 41v-709q0 -74 34 -99.5t120 -25.5v-14h-496zM104 969q30 41 90.5 128t91 127.5t50.5 59.5q33 31 68 31t59 -27q23 -24 19 -59.5t-38 -65.5q-20 -17 -65.5 -44.5t-131 -75t-138.5 -78.5z" />
<glyph unicode="&#xee;" horiz-adv-x="573" d="M-14 963l227 282q26 37 66 37q38 0 67 -37l225 -282l-4 -5l-288 160l-289 -160zM49 0v14q86 0 120 25.5t34 99.5v531q0 74 -34 99.5t-120 25.5v12l340 41v-709q0 -74 34 -99.5t120 -25.5v-14h-494z" />
<glyph unicode="&#xef;" horiz-adv-x="573" d="M-14 1120q0 48 32.5 81.5t79.5 33.5t81 -33t34 -80q0 -49 -33.5 -82.5t-79.5 -33.5t-80 33.5t-34 80.5zM47 0v14q86 0 120 25.5t34 99.5v531q0 74 -34 99.5t-120 25.5v12l342 41v-709q0 -74 34 -99.5t120 -25.5v-14h-496zM336 1120q0 47 33 81t80 34t80.5 -34t33.5 -81 t-33 -80.5t-79 -33.5q-47 0 -81 33.5t-34 80.5z" />
<glyph unicode="&#xf0;" horiz-adv-x="1077" d="M84 391q0 189 122 305.5t312 116.5q126 0 225 -59q-56 224 -202 385l-316 -178l-8 16l309 176q-106 112 -256 193l6 12q178 -96 289 -184l219 124l11 -16l-213 -121q399 -313 399 -690q0 -99 -28 -186t-82.5 -157.5t-145 -111.5t-207.5 -41q-201 0 -317.5 115.5 t-116.5 300.5zM283 377q0 -70 10.5 -132t35 -122t73 -95.5t116.5 -35.5q74 0 127.5 42t81.5 113.5t40.5 149t12.5 166.5q0 134 -30 266q-87 55 -179 55q-75 0 -132 -32t-90 -89t-49.5 -128.5t-16.5 -157.5z" />
<glyph unicode="&#xf1;" horiz-adv-x="1124" d="M45 0v14q86 0 120 25.5t34 99.5v531q0 74 -34 99.5t-120 25.5v12l338 41v-178q33 34 62 59t73 56t94.5 48t102.5 17q102 0 169.5 -66.5t67.5 -199.5v-445q0 -74 34 -99.5t120 -25.5v-14h-490v14q82 0 115 25.5t33 99.5v455q0 88 -38 134t-110 46q-47 0 -94 -21.5 t-74 -43.5t-63 -58v-512q0 -74 34 -99.5t116 -25.5v-14h-490zM279 999q5 52 12.5 91.5t24 84.5t47.5 70t75 25q53 0 162 -58.5t164 -58.5q30 0 50.5 10.5t31.5 31.5t15.5 39t8.5 46h11q-22 -270 -160 -270q-53 0 -162 58t-164 58q-30 0 -50.5 -10.5t-31.5 -31t-15.5 -39 t-8.5 -46.5h-10z" />
<glyph unicode="&#xf2;" horiz-adv-x="1050" d="M84 414q0 103 38 187.5t101 138t141 82t162 28.5q83 0 161 -28.5t141.5 -82t102 -138t38.5 -187.5q0 -104 -38.5 -189t-102 -138t-141.5 -81.5t-161 -28.5q-84 0 -162 28.5t-141 81.5t-101 138t-38 189zM287 414q0 -195 58.5 -307.5t180.5 -112.5q121 0 179.5 113 t58.5 307t-58.5 305.5t-179.5 111.5q-122 0 -180.5 -111.5t-58.5 -305.5zM312.5 1228.5q-3.5 35.5 19.5 59.5q24 27 60 27t69 -31q20 -18 51.5 -60.5t87 -124t90.5 -130.5l-4 -4q-54 31 -139 78.5t-131 75t-66 44.5q-34 30 -37.5 65.5z" />
<glyph unicode="&#xf3;" horiz-adv-x="1050" d="M84 414q0 103 38 187.5t101 138t141 82t162 28.5q83 0 161 -28.5t141.5 -82t102 -138t38.5 -187.5q0 -104 -38.5 -189t-102 -138t-141.5 -81.5t-161 -28.5q-84 0 -162 28.5t-141 81.5t-101 138t-38 189zM287 414q0 -195 58.5 -307.5t180.5 -112.5q121 0 179.5 113 t58.5 307t-58.5 305.5t-179.5 111.5q-122 0 -180.5 -111.5t-58.5 -305.5zM360 969q34 47 91 129.5t88 125t51 60.5q33 31 69 31t60 -27q23 -24 19 -59.5t-38 -65.5q-20 -17 -65.5 -44.5t-131 -75t-138.5 -78.5z" />
<glyph unicode="&#xf4;" horiz-adv-x="1050" d="M84 414q0 103 38 187.5t101 138t141 82t162 28.5q83 0 161 -28.5t141.5 -82t102 -138t38.5 -187.5q0 -104 -38.5 -189t-102 -138t-141.5 -81.5t-161 -28.5q-84 0 -162 28.5t-141 81.5t-101 138t-38 189zM233 963l226 282q29 37 67 37q40 0 66 -37l227 -282l-4 -5 l-289 160l-288 -160zM287 414q0 -195 58.5 -307.5t180.5 -112.5q121 0 179.5 113t58.5 307t-58.5 305.5t-179.5 111.5q-122 0 -180.5 -111.5t-58.5 -305.5z" />
<glyph unicode="&#xf5;" horiz-adv-x="1050" d="M84 414q0 103 38 187.5t101 138t141 82t162 28.5q83 0 161 -28.5t141.5 -82t102 -138t38.5 -187.5q0 -104 -38.5 -189t-102 -138t-141.5 -81.5t-161 -28.5q-84 0 -162 28.5t-141 81.5t-101 138t-38 189zM223 999q5 52 12.5 91.5t24 84.5t48 70t75.5 25q53 0 162 -58.5 t164 -58.5q30 0 50.5 10.5t31.5 31.5t15.5 39t8.5 46h10q-5 -54 -14 -95.5t-26 -84.5t-48 -66.5t-73 -23.5q-44 0 -102.5 29t-118 58t-105.5 29q-30 0 -50.5 -10.5t-31.5 -31t-15.5 -39.5t-7.5 -46h-10zM287 414q0 -195 58.5 -307.5t180.5 -112.5q121 0 179.5 113t58.5 307 t-58.5 305.5t-179.5 111.5q-122 0 -180.5 -111.5t-58.5 -305.5z" />
<glyph unicode="&#xf6;" horiz-adv-x="1050" d="M84 414q0 103 38 187.5t101 138t141 82t162 28.5q83 0 161 -28.5t141.5 -82t102 -138t38.5 -187.5q0 -104 -38.5 -189t-102 -138t-141.5 -81.5t-161 -28.5q-84 0 -162 28.5t-141 81.5t-101 138t-38 189zM238 1120q0 48 32.5 81.5t79.5 33.5t81 -33t34 -80 q0 -49 -33.5 -82.5t-79.5 -33.5t-80 33.5t-34 80.5zM287 414q0 -195 58.5 -307.5t180.5 -112.5q121 0 179.5 113t58.5 307t-58.5 305.5t-179.5 111.5q-122 0 -180.5 -111.5t-58.5 -305.5zM588 1120q0 48 32.5 81.5t79.5 33.5t81 -34t34 -81t-34 -80.5t-81 -33.5 q-46 0 -79 33.5t-33 80.5z" />
<glyph unicode="&#xf7;" horiz-adv-x="1202" d="M145 492v20h912v-20h-912zM508 162q0 38 28 65t66 27t64 -27t26 -65q0 -37 -26 -64.5t-64 -27.5t-66 27.5t-28 64.5zM508 844q0 38 28 65t66 27t64 -27t26 -65q0 -37 -26 -64.5t-64 -27.5t-66 27.5t-28 64.5z" />
<glyph unicode="&#xf8;" horiz-adv-x="1050" d="M84 414q0 103 38 187.5t101 138t141 82t162 28.5q153 0 273 -88l94 115l12 -11l-92 -114q156 -125 156 -338q0 -104 -38.5 -189t-102 -138t-141.5 -81.5t-161 -28.5q-151 0 -276 89l-92 -115l-15 10l93 115q-152 125 -152 338zM287 414q0 -145 37 -238l397 494 q-58 161 -195 161q-122 0 -180.5 -111.5t-58.5 -305.5zM330 158q58 -164 196 -164q121 0 179.5 113t58.5 307q0 141 -37 239z" />
<glyph unicode="&#xf9;" horiz-adv-x="1107" d="M20 795v12l340 41v-615q0 -88 38.5 -135t111.5 -47q66 0 120.5 34.5t108.5 90.5v492q0 74 -33 100.5t-114 26.5v12l336 41v-707q0 -75 33.5 -101t119.5 -26v-14h-338v156q-33 -34 -61.5 -59t-72.5 -55.5t-95 -47.5t-104 -17q-102 0 -169 66t-67 199v426q0 74 -34 100.5 t-120 26.5zM294 1228.5q-4 35.5 19 59.5q24 27 59 27t68 -31q20 -18 52 -61t87.5 -123t92.5 -131l-4 -4q-49 28 -138.5 78t-133.5 76t-64 44q-34 30 -38 65.5z" />
<glyph unicode="&#xfa;" horiz-adv-x="1107" d="M20 795v12l340 41v-615q0 -88 38.5 -135t111.5 -47q66 0 120.5 34.5t108.5 90.5v492q0 74 -33 100.5t-114 26.5v12l336 41v-707q0 -75 33.5 -101t119.5 -26v-14h-338v156q-33 -34 -61.5 -59t-72.5 -55.5t-95 -47.5t-104 -17q-102 0 -169 66t-67 199v426q0 74 -34 100.5 t-120 26.5zM393 969q37 51 92.5 131t87.5 123t52 61q33 31 68.5 31t58.5 -27q23 -24 19.5 -59.5t-36.5 -65.5q-21 -18 -66 -44.5t-133 -75.5t-139 -78z" />
<glyph unicode="&#xfb;" horiz-adv-x="1107" d="M20 795v12l340 41v-615q0 -88 38.5 -135t111.5 -47q66 0 120.5 34.5t108.5 90.5v492q0 74 -33 100.5t-114 26.5v12l336 41v-707q0 -75 33.5 -101t119.5 -26v-14h-338v156q-33 -34 -61.5 -59t-72.5 -55.5t-95 -47.5t-104 -17q-102 0 -169 66t-67 199v426q0 74 -34 100.5 t-120 26.5zM244 963l225 282q29 37 68 37t65 -37l227 -282l-4 -5l-288 160l-289 -160z" />
<glyph unicode="&#xfc;" horiz-adv-x="1107" d="M20 795v12l340 41v-615q0 -88 38.5 -135t111.5 -47q66 0 120.5 34.5t108.5 90.5v492q0 74 -33 100.5t-114 26.5v12l336 41v-707q0 -75 33.5 -101t119.5 -26v-14h-338v156q-33 -34 -61.5 -59t-72.5 -55.5t-95 -47.5t-104 -17q-102 0 -169 66t-67 199v426q0 74 -34 100.5 t-120 26.5zM250 1120q0 48 32.5 81.5t79.5 33.5t81 -33t34 -80q0 -49 -33 -82.5t-79 -33.5q-47 0 -81 33.5t-34 80.5zM600 1120q0 47 33 81t80 34t80.5 -34t33.5 -81t-33.5 -80.5t-80.5 -33.5q-46 0 -79.5 33.5t-33.5 80.5z" />
<glyph unicode="&#xfd;" horiz-adv-x="997" d="M-20 813v14h546v-14q-78 0 -114.5 -21t-36 -60.5t23.5 -96.5l185 -440l73 184q62 152 86.5 226.5t24.5 113.5q0 94 -137 94v14h395v-14q-137 0 -207 -115q-11 -18 -26 -50t-28.5 -64t-41 -97t-49.5 -116l-197 -461q-19 -44 -43.5 -85.5t-60 -84.5t-82.5 -69.5t-98 -26.5 q-42 0 -65.5 19t-23.5 52q0 39 30.5 60.5t78.5 32.5t98.5 23t97.5 42.5t70 81.5l13 29l-281 630q-49 108 -98 153.5t-133 45.5zM397 969q30 41 90.5 128t91 127.5t50.5 59.5q33 31 68 31t59 -27q23 -24 19 -59.5t-38 -65.5q-20 -17 -66 -44.5t-131 -75t-139 -78.5z" />
<glyph unicode="&#xfe;" horiz-adv-x="1060" d="M-12 -319q86 0 119.5 26t33.5 100v1383q0 75 -33.5 101t-119.5 26v12l342 41v-663q107 143 276 143q107 0 192.5 -60.5t131 -159.5t45.5 -216q0 -189 -114.5 -313t-301.5 -124q-159 0 -229 86v-260q0 -73 35 -97.5t122 -24.5v-15h-499v15zM330 170q5 -70 58 -123t134 -53 q78 0 136.5 58.5t87 150t28.5 200.5q0 77 -14 145t-42.5 125t-78 90.5t-113.5 33.5q-118 0 -196 -115v-512z" />
<glyph unicode="&#xff;" horiz-adv-x="997" d="M-20 813v14h546v-14q-78 0 -114.5 -21t-36 -60.5t23.5 -96.5l185 -440l73 184q62 152 86.5 226.5t24.5 113.5q0 94 -137 94v14h395v-14q-137 0 -207 -115q-11 -18 -26 -50t-28.5 -64t-41 -97t-49.5 -116l-197 -461q-19 -44 -43.5 -85.5t-60 -84.5t-82.5 -69.5t-98 -26.5 q-42 0 -65.5 19t-23.5 52q0 39 30.5 60.5t78.5 32.5t98.5 23t97.5 42.5t70 81.5l13 29l-281 630q-49 108 -98 153.5t-133 45.5zM254 1120q0 47 33 81t80 34t80.5 -33t33.5 -80q0 -49 -33 -82.5t-79 -33.5q-47 0 -81 33.5t-34 80.5zM604 1120q0 47 33 81t80 34t80.5 -34 t33.5 -81t-33.5 -80.5t-80.5 -33.5q-46 0 -79.5 33.5t-33.5 80.5z" />
<glyph unicode="&#x152;" horiz-adv-x="2091" d="M92 633q0 185 84.5 335t238 236t347.5 86q30 0 167.5 -12t178.5 -12h827l25 -377l-10 -2q-17 76 -39 129.5t-60 100t-92.5 74t-135 43t-189.5 15.5h-150v-610h41q203 0 287.5 56.5t109.5 211.5h13v-551h-13q-17 104 -59 161t-121 81.5t-217 24.5h-41v-607h172 q94 0 168 13t126 40.5t88.5 59.5t62.5 80.5t41.5 91.5t31.5 105l13 -3l-39 -403h-840q-31 0 -171 -12.5t-175 -12.5q-194 0 -347.5 86.5t-238 236.5t-84.5 335zM319 633q0 -103 13.5 -193t45.5 -173.5t81.5 -142.5t127 -94.5t175.5 -35.5q158 0 237.5 54t79.5 181v809 q0 234 -317 234q-98 0 -175.5 -35.5t-127 -95t-81.5 -143t-45.5 -173.5t-13.5 -192z" />
<glyph unicode="&#x153;" horiz-adv-x="1654" d="M84 414q0 103 37 187.5t99.5 138t141 82t164.5 28.5q103 0 194 -42t150 -122q55 77 139.5 120.5t184.5 43.5q75 0 142 -24.5t120.5 -70.5t85.5 -120.5t33 -167.5h-606q-8 -209 65 -329t217 -120q107 0 186.5 61.5t123.5 145.5l12 -6q-126 -242 -389 -242q-213 0 -322 154 q-59 -75 -147.5 -114.5t-188.5 -39.5q-68 0 -132.5 17.5t-120.5 54t-98 87.5t-66.5 122.5t-24.5 155.5zM287 414q0 -194 59 -307t180 -113q122 0 181 113t59 307t-59 305.5t-181 111.5q-121 0 -180 -111.5t-59 -305.5zM969 483h411q0 42 -4 84t-16.5 92t-32.5 88t-55.5 63.5 t-81.5 25.5q-65 0 -114 -51t-75 -129t-32 -173z" />
<glyph unicode="&#x178;" horiz-adv-x="1347" d="M-10 1251v15h618v-15q-233 0 -96 -231l254 -428h6l86 145q107 179 149 266t42 138q0 110 -175 110v15h539v-15q-95 0 -161 -32t-119 -95q-58 -68 -261 -399l-86 -141v-334q0 -50 2.5 -80t14 -63.5t33 -51t60 -29.5t95.5 -12v-14h-616v14q57 0 95.5 12t60 29.5t33 51 t14 63.5t2.5 80v270l-283 471q-36 59 -65 99t-67.5 80.5t-82.5 60.5t-92 20zM428 1530q0 47 33 81t80 34q46 0 80 -33t34 -80q0 -49 -33.5 -83t-78.5 -34q-47 0 -81 34t-34 81zM778 1530q0 47 33 81t80 34q46 0 80.5 -34t34.5 -81t-34.5 -81t-80.5 -34q-47 0 -80 34t-33 81z " />
<glyph unicode="&#x2c6;" horiz-adv-x="880" d="M147 963l228 282q29 37 65 37q39 0 68 -37l227 -282l-4 -5l-291 160l-288 -160z" />
<glyph unicode="&#x2dc;" horiz-adv-x="808" d="M119 999q5 52 12.5 91.5t24 84.5t48 70t75.5 25q53 0 161.5 -58.5t163.5 -58.5q56 0 77.5 34.5t29.5 92.5h10q-26 -270 -162 -270q-44 0 -102.5 29t-118 58t-105.5 29q-30 0 -50.5 -10.5t-31 -31t-15 -39.5t-7.5 -46h-10z" />
<glyph unicode="&#x2000;" horiz-adv-x="874" />
<glyph unicode="&#x2001;" horiz-adv-x="1749" />
<glyph unicode="&#x2002;" horiz-adv-x="874" />
<glyph unicode="&#x2003;" horiz-adv-x="1749" />
<glyph unicode="&#x2004;" horiz-adv-x="583" />
<glyph unicode="&#x2005;" horiz-adv-x="437" />
<glyph unicode="&#x2006;" horiz-adv-x="291" />
<glyph unicode="&#x2007;" horiz-adv-x="291" />
<glyph unicode="&#x2008;" horiz-adv-x="218" />
<glyph unicode="&#x2009;" horiz-adv-x="349" />
<glyph unicode="&#x200a;" horiz-adv-x="97" />
<glyph unicode="&#x2010;" horiz-adv-x="792" d="M127 442v68h541v-68h-541z" />
<glyph unicode="&#x2011;" horiz-adv-x="792" d="M127 442v68h541v-68h-541z" />
<glyph unicode="&#x2012;" horiz-adv-x="792" d="M127 442v68h541v-68h-541z" />
<glyph unicode="&#x2013;" horiz-adv-x="1189" d="M127 442v68h938v-68h-938z" />
<glyph unicode="&#x2014;" horiz-adv-x="1796" d="M127 442v68h1544v-68h-1544z" />
<glyph unicode="&#x2018;" horiz-adv-x="460" d="M92 995q0 63 29 124t96 119t164 93l6 -12q-96 -34 -160.5 -110t-64.5 -160q30 20 65 20q47 0 81 -33.5t34 -79.5q0 -48 -35 -81t-88 -33q-60 0 -93.5 43t-33.5 110z" />
<glyph unicode="&#x2019;" horiz-adv-x="475" d="M104 850q97 36 161.5 111.5t64.5 160.5q-28 -22 -66 -22q-47 0 -80.5 33.5t-33.5 80.5q0 48 34.5 80.5t87.5 32.5q60 0 93.5 -42.5t33.5 -110.5q0 -98 -72.5 -190.5t-215.5 -143.5z" />
<glyph unicode="&#x201a;" horiz-adv-x="481" d="M68 -252q98 36 162.5 111.5t64.5 160.5q-28 -22 -66 -22q-47 0 -80.5 34t-33.5 81q0 48 34.5 80t88.5 32q59 0 93 -42.5t34 -110.5q0 -97 -73.5 -190t-215.5 -144z" />
<glyph unicode="&#x201c;" horiz-adv-x="843" d="M92 995q0 63 29 124t96 119t164 93l6 -12q-96 -34 -160.5 -110t-64.5 -160q30 20 65 20q47 0 81 -33.5t34 -79.5q0 -48 -35 -81t-88 -33q-60 0 -93.5 43t-33.5 110zM475 995q0 99 72.5 191.5t214.5 144.5l8 -12q-98 -34 -162 -110t-63 -160q27 20 65 20q46 0 79.5 -33.5 t33.5 -79.5q0 -48 -34.5 -81t-86.5 -33q-60 0 -93.5 43t-33.5 110z" />
<glyph unicode="&#x201d;" horiz-adv-x="858" d="M104 850q97 36 161.5 111.5t64.5 160.5q-28 -22 -66 -22q-47 0 -80.5 33.5t-33.5 80.5q0 48 34.5 80.5t87.5 32.5q60 0 93.5 -42.5t33.5 -110.5q0 -98 -72.5 -190.5t-215.5 -143.5zM485 850q99 36 163 111.5t63 160.5q-25 -22 -66 -22q-46 0 -79.5 33.5t-33.5 80.5 q0 48 34.5 80.5t86.5 32.5q60 0 93.5 -42.5t33.5 -110.5q0 -98 -72 -190.5t-214 -143.5z" />
<glyph unicode="&#x201e;" horiz-adv-x="862" d="M68 -252q98 36 162.5 111.5t64.5 160.5q-28 -22 -66 -22q-47 0 -80.5 34t-33.5 81q0 48 34.5 80t88.5 32q59 0 93 -42.5t34 -110.5q0 -97 -73.5 -190t-215.5 -144zM451 -252q98 36 162 112t63 160q-28 -22 -66 -22q-47 0 -80.5 34t-33.5 81t35 79.5t87 32.5 q60 0 93.5 -42.5t33.5 -110.5q0 -98 -72.5 -190.5t-215.5 -143.5z" />
<glyph unicode="&#x2022;" horiz-adv-x="714" d="M168 498q0 78 55.5 133t132.5 55q78 0 134.5 -55t56.5 -133t-56.5 -134.5t-134.5 -56.5q-77 0 -132.5 56.5t-55.5 134.5z" />
<glyph unicode="&#x2026;" horiz-adv-x="1617" d="M115 106q0 51 35 85t86 34t85.5 -34t34.5 -85t-34.5 -86.5t-85.5 -35.5t-86 35.5t-35 86.5zM688 106q0 51 35 85t86 34t86 -34t35 -85t-35 -86.5t-86 -35.5t-86 35.5t-35 86.5zM1262 106q0 51 34.5 85t85.5 34t86 -34t35 -85t-35 -86.5t-86 -35.5t-85.5 35.5t-34.5 86.5z " />
<glyph unicode="&#x202f;" horiz-adv-x="349" />
<glyph unicode="&#x2039;" horiz-adv-x="727" d="M53 457v4l592 409l6 -10l-448 -401l448 -402l-6 -10z" />
<glyph unicode="&#x203a;" horiz-adv-x="727" d="M74 57l450 402l-450 401l6 10l592 -409v-4l-592 -410z" />
<glyph unicode="&#x205f;" horiz-adv-x="437" />
<glyph unicode="&#x20ac;" horiz-adv-x="1302" d="M72 498v18h133q-4 66 -4 105q0 86 10 145h-139v18h141q44 232 197.5 369t369.5 137q80 0 149.5 -20t117 -52.5t81.5 -74t50 -84.5t16 -84q0 -64 -37 -100.5t-88 -36.5q-52 0 -88.5 37.5t-36.5 91.5q0 50 34 87t83 40q-64 182 -250 182q-167 0 -268 -133.5t-127 -358.5 h465v-18h-467q-6 -68 -6 -135q0 -37 4 -115h469v-18h-467q11 -106 37.5 -193t71.5 -156.5t115 -108t159 -38.5q133 0 231.5 82.5t161.5 222.5l14 -6q-76 -164 -183 -245t-265 -81q-212 0 -364 139.5t-185 383.5h-135z" />
<glyph unicode="&#x2122;" horiz-adv-x="1687" d="M109 1063l16 203h524l17 -203h-9q-15 48 -26 75t-33.5 58.5t-57.5 46t-85 14.5h-6v-466q0 -56 19.5 -74.5t74.5 -18.5v-8h-312v8q55 0 75 18.5t20 74.5v466h-9q-49 0 -84 -14.5t-57 -45.5t-34 -59.5t-25 -74.5h-8zM727 690v8q52 0 77 21.5t39.5 80.5t22.5 185l8 123 q5 79 -18.5 114t-91.5 35v9h223l191 -404l170 404h190v-9q-52 0 -68 -25.5t-14 -82.5l17 -344q3 -60 21 -83.5t69 -23.5v-8h-293v8q50 0 66.5 24t13.5 77l-21 393l-205 -485h-4l-229 467l-14 -187q-11 -121 -4.5 -185t27.5 -84t73 -20v-8h-246z" />
<glyph unicode="&#x25fc;" horiz-adv-x="829" d="M0 0v829h829v-829h-829z" />
</font>
</defs>
</svg>
